<?xml version="1.0" encoding="us-ascii" standalone="no"?><svg xmlns="http://www.w3.org/2000/svg" xmlns:xlink="http://www.w3.org/1999/xlink" contentStyleType="text/css" height="300px" preserveAspectRatio="none" style="width:741px;height:300px;background:#FFFFFF;" version="1.1" viewBox="0 0 741 300" width="741px" zoomAndPan="magnify"><defs/><g><g id="elem_Socket"><rect codeLine="2" fill="#F1F1F1" height="64.2969" id="Socket" rx="2.5" ry="2.5" style="stroke:#181818;stroke-width:0.5;" width="152" x="7" y="7"/><ellipse cx="54.75" cy="23" fill="#ADD1B2" rx="11" ry="11" style="stroke:#181818;stroke-width:1.0;"/><path d="M57.7188,28.6406 Q57.1406,28.9375 56.5,29.0781 Q55.8594,29.2344 55.1563,29.2344 Q52.6563,29.2344 51.3281,27.5938 Q50.0156,25.9375 50.0156,22.8125 Q50.0156,19.6875 51.3281,18.0313 Q52.6563,16.375 55.1563,16.375 Q55.8594,16.375 56.5,16.5313 Q57.1563,16.6875 57.7188,16.9844 L57.7188,19.7031 Q57.0938,19.125 56.5,18.8594 Q55.9063,18.5781 55.2813,18.5781 Q53.9375,18.5781 53.25,19.6563 Q52.5625,20.7188 52.5625,22.8125 Q52.5625,24.9063 53.25,25.9844 Q53.9375,27.0469 55.2813,27.0469 Q55.9063,27.0469 56.5,26.7813 Q57.0938,26.5 57.7188,25.9219 L57.7188,28.6406 Z " fill="#000000"/><text fill="#000000" font-family="sans-serif" font-size="14" lengthAdjust="spacing" textLength="48" x="75.25" y="27.8467">Socket</text><line style="stroke:#181818;stroke-width:0.5;" x1="8" x2="158" y1="39" y2="39"/><text fill="#000000" font-family="sans-serif" font-size="14" lengthAdjust="spacing" textLength="140" x="13" y="55.9951">// &#30465;&#30053;&#20854;&#20182;&#25104;&#21592;&#21644;&#26041;&#27861;</text><line style="stroke:#181818;stroke-width:0.5;" x1="8" x2="158" y1="63.2969" y2="63.2969"/></g><g id="elem_BufferedReader"><rect codeLine="6" fill="#F1F1F1" height="64.2969" id="BufferedReader" rx="2.5" ry="2.5" style="stroke:#181818;stroke-width:0.5;" width="152" x="194" y="7"/><ellipse cx="213.95" cy="23" fill="#ADD1B2" rx="11" ry="11" style="stroke:#181818;stroke-width:1.0;"/><path d="M216.9188,28.6406 Q216.3406,28.9375 215.7,29.0781 Q215.0594,29.2344 214.3563,29.2344 Q211.8563,29.2344 210.5281,27.5938 Q209.2156,25.9375 209.2156,22.8125 Q209.2156,19.6875 210.5281,18.0313 Q211.8563,16.375 214.3563,16.375 Q215.0594,16.375 215.7,16.5313 Q216.3563,16.6875 216.9188,16.9844 L216.9188,19.7031 Q216.2938,19.125 215.7,18.8594 Q215.1063,18.5781 214.4813,18.5781 Q213.1375,18.5781 212.45,19.6563 Q211.7625,20.7188 211.7625,22.8125 Q211.7625,24.9063 212.45,25.9844 Q213.1375,27.0469 214.4813,27.0469 Q215.1063,27.0469 215.7,26.7813 Q216.2938,26.5 216.9188,25.9219 L216.9188,28.6406 Z " fill="#000000"/><text fill="#000000" font-family="sans-serif" font-size="14" lengthAdjust="spacing" textLength="109" x="229.05" y="27.8467">BufferedReader</text><line style="stroke:#181818;stroke-width:0.5;" x1="195" x2="345" y1="39" y2="39"/><text fill="#000000" font-family="sans-serif" font-size="14" lengthAdjust="spacing" textLength="140" x="200" y="55.9951">// &#30465;&#30053;&#20854;&#20182;&#25104;&#21592;&#21644;&#26041;&#27861;</text><line style="stroke:#181818;stroke-width:0.5;" x1="195" x2="345" y1="63.2969" y2="63.2969"/></g><g id="elem_InputStreamReader"><rect codeLine="10" fill="#F1F1F1" height="64.2969" id="InputStreamReader" rx="2.5" ry="2.5" style="stroke:#181818;stroke-width:0.5;" width="166" x="381" y="7"/><ellipse cx="396" cy="23" fill="#ADD1B2" rx="11" ry="11" style="stroke:#181818;stroke-width:1.0;"/><path d="M398.9688,28.6406 Q398.3906,28.9375 397.75,29.0781 Q397.1094,29.2344 396.4063,29.2344 Q393.9063,29.2344 392.5781,27.5938 Q391.2656,25.9375 391.2656,22.8125 Q391.2656,19.6875 392.5781,18.0313 Q393.9063,16.375 396.4063,16.375 Q397.1094,16.375 397.75,16.5313 Q398.4063,16.6875 398.9688,16.9844 L398.9688,19.7031 Q398.3438,19.125 397.75,18.8594 Q397.1563,18.5781 396.5313,18.5781 Q395.1875,18.5781 394.5,19.6563 Q393.8125,20.7188 393.8125,22.8125 Q393.8125,24.9063 394.5,25.9844 Q395.1875,27.0469 396.5313,27.0469 Q397.1563,27.0469 397.75,26.7813 Q398.3438,26.5 398.9688,25.9219 L398.9688,28.6406 Z " fill="#000000"/><text fill="#000000" font-family="sans-serif" font-size="14" lengthAdjust="spacing" textLength="134" x="410" y="27.8467">InputStreamReader</text><line style="stroke:#181818;stroke-width:0.5;" x1="382" x2="546" y1="39" y2="39"/><text fill="#000000" font-family="sans-serif" font-size="14" lengthAdjust="spacing" textLength="140" x="387" y="55.9951">// &#30465;&#30053;&#20854;&#20182;&#25104;&#21592;&#21644;&#26041;&#27861;</text><line style="stroke:#181818;stroke-width:0.5;" x1="382" x2="546" y1="63.2969" y2="63.2969"/></g><g id="elem_PrintStream"><rect codeLine="14" fill="#F1F1F1" height="64.2969" id="PrintStream" rx="2.5" ry="2.5" style="stroke:#181818;stroke-width:0.5;" width="152" x="582" y="7"/><ellipse cx="615" cy="23" fill="#ADD1B2" rx="11" ry="11" style="stroke:#181818;stroke-width:1.0;"/><path d="M617.9688,28.6406 Q617.3906,28.9375 616.75,29.0781 Q616.1094,29.2344 615.4063,29.2344 Q612.9063,29.2344 611.5781,27.5938 Q610.2656,25.9375 610.2656,22.8125 Q610.2656,19.6875 611.5781,18.0313 Q612.9063,16.375 615.4063,16.375 Q616.1094,16.375 616.75,16.5313 Q617.4063,16.6875 617.9688,16.9844 L617.9688,19.7031 Q617.3438,19.125 616.75,18.8594 Q616.1563,18.5781 615.5313,18.5781 Q614.1875,18.5781 613.5,19.6563 Q612.8125,20.7188 612.8125,22.8125 Q612.8125,24.9063 613.5,25.9844 Q614.1875,27.0469 615.5313,27.0469 Q616.1563,27.0469 616.75,26.7813 Q617.3438,26.5 617.9688,25.9219 L617.9688,28.6406 Z " fill="#000000"/><text fill="#000000" font-family="sans-serif" font-size="14" lengthAdjust="spacing" textLength="80" x="633" y="27.8467">PrintStream</text><line style="stroke:#181818;stroke-width:0.5;" x1="583" x2="733" y1="39" y2="39"/><text fill="#000000" font-family="sans-serif" font-size="14" lengthAdjust="spacing" textLength="140" x="588" y="55.9951">// &#30465;&#30053;&#20854;&#20182;&#25104;&#21592;&#21644;&#26041;&#27861;</text><line style="stroke:#181818;stroke-width:0.5;" x1="583" x2="733" y1="63.2969" y2="63.2969"/></g><g id="elem_MyStreamSocket"><rect codeLine="18" fill="#F1F1F1" height="162.0781" id="MyStreamSocket" rx="2.5" ry="2.5" style="stroke:#181818;stroke-width:0.5;" width="604" x="65" y="131"/><ellipse cx="304.75" cy="147" fill="#ADD1B2" rx="11" ry="11" style="stroke:#181818;stroke-width:1.0;"/><path d="M307.7188,152.6406 Q307.1406,152.9375 306.5,153.0781 Q305.8594,153.2344 305.1563,153.2344 Q302.6563,153.2344 301.3281,151.5938 Q300.0156,149.9375 300.0156,146.8125 Q300.0156,143.6875 301.3281,142.0313 Q302.6563,140.375 305.1563,140.375 Q305.8594,140.375 306.5,140.5313 Q307.1563,140.6875 307.7188,140.9844 L307.7188,143.7031 Q307.0938,143.125 306.5,142.8594 Q305.9063,142.5781 305.2813,142.5781 Q303.9375,142.5781 303.25,143.6563 Q302.5625,144.7188 302.5625,146.8125 Q302.5625,148.9063 303.25,149.9844 Q303.9375,151.0469 305.2813,151.0469 Q305.9063,151.0469 306.5,150.7813 Q307.0938,150.5 307.7188,149.9219 L307.7188,152.6406 Z " fill="#000000"/><text fill="#000000" font-family="sans-serif" font-size="14" lengthAdjust="spacing" textLength="116" x="325.25" y="151.8467">MyStreamSocket</text><line style="stroke:#181818;stroke-width:0.5;" x1="66" x2="668" y1="163" y2="163"/><rect fill="none" height="6" style="stroke:#C82930;stroke-width:1.0;" width="6" x="73" y="173.6484"/><text fill="#000000" font-family="sans-serif" font-size="14" lengthAdjust="spacing" textLength="131" x="85" y="179.9951">bf: BufferedReader</text><rect fill="none" height="6" style="stroke:#C82930;stroke-width:1.0;" width="6" x="73" y="189.9453"/><text fill="#000000" font-family="sans-serif" font-size="14" lengthAdjust="spacing" textLength="106" x="85" y="196.292">ps: PrintStream</text><line style="stroke:#181818;stroke-width:0.5;" x1="66" x2="668" y1="203.5938" y2="203.5938"/><ellipse cx="76" cy="217.2422" fill="#84BE84" rx="3" ry="3" style="stroke:#038048;stroke-width:1.0;"/><text fill="#000000" font-family="sans-serif" font-size="14" lengthAdjust="spacing" textLength="578" x="85" y="220.5889">MyStreamSocket(host: String, port: int) throws UnknownHostException, IOException</text><ellipse cx="76" cy="233.5391" fill="#84BE84" rx="3" ry="3" style="stroke:#038048;stroke-width:1.0;"/><text fill="#000000" font-family="sans-serif" font-size="14" lengthAdjust="spacing" textLength="410" x="85" y="236.8857">MyStreamSocket(impl: SocketImpl) throws SocketException</text><ellipse cx="76" cy="249.8359" fill="#84BE84" rx="3" ry="3" style="stroke:#038048;stroke-width:1.0;"/><text fill="#000000" font-family="sans-serif" font-size="14" lengthAdjust="spacing" textLength="67" x="85" y="253.1826">init(): void</text><ellipse cx="76" cy="266.1328" fill="#84BE84" rx="3" ry="3" style="stroke:#038048;stroke-width:1.0;"/><text fill="#000000" font-family="sans-serif" font-size="14" lengthAdjust="spacing" textLength="246" x="85" y="269.4795">receive(): String throws IOException</text><ellipse cx="76" cy="282.4297" fill="#84BE84" rx="3" ry="3" style="stroke:#038048;stroke-width:1.0;"/><text fill="#000000" font-family="sans-serif" font-size="14" lengthAdjust="spacing" textLength="195" x="85" y="285.7764">send(message: String): void</text></g><g id="link_Socket_MyStreamSocket"><path codeLine="28" d="M139.9002,74.26 C167.8982,91.118 198.749,109.694 233.997,130.917 " fill="none" id="Socket-backto-MyStreamSocket" style="stroke:#181818;stroke-width:1.0;"/><polygon fill="#181818" points="134.76,71.165,140.4069,79.2342,139.0435,73.7441,144.5335,72.3807,134.76,71.165" style="stroke:#181818;stroke-width:1.0;"/></g><g id="link_BufferedReader_MyStreamSocket"><path codeLine="29" d="M290.7514,76.5828 C300.2684,93.3598 309.504,109.642 321.46,130.718 " fill="none" id="BufferedReader-backto-MyStreamSocket" style="stroke:#181818;stroke-width:1.0;"/><polygon fill="#181818" points="287.791,71.364,288.7525,81.1658,290.258,75.713,295.7109,77.2186,287.791,71.364" style="stroke:#181818;stroke-width:1.0;"/></g><g id="link_InputStreamReader_MyStreamSocket"><path codeLine="30" d="M443.2486,76.5828 C433.7316,93.3598 424.496,109.642 412.54,130.718 " fill="none" id="InputStreamReader-backto-MyStreamSocket" style="stroke:#181818;stroke-width:1.0;"/><polygon fill="#181818" points="446.209,71.364,438.2891,77.2186,443.742,75.713,445.2475,81.1658,446.209,71.364" style="stroke:#181818;stroke-width:1.0;"/></g><g id="link_PrintStream_MyStreamSocket"><path codeLine="31" d="M599.791,74.2048 C571.103,91.0628 539.399,109.694 503.282,130.917 " fill="none" id="PrintStream-backto-MyStreamSocket" style="stroke:#181818;stroke-width:1.0;"/><polygon fill="#181818" points="604.964,71.165,595.178,72.2761,600.6532,73.6982,599.2311,79.1734,604.964,71.165" style="stroke:#181818;stroke-width:1.0;"/></g></g></svg>