<?xml version="1.0" encoding="us-ascii" standalone="no"?><svg xmlns="http://www.w3.org/2000/svg" xmlns:xlink="http://www.w3.org/1999/xlink" contentStyleType="text/css" height="711px" preserveAspectRatio="none" style="width:573px;height:711px;background:#FFFFFF;" version="1.1" viewBox="0 0 573 711" width="573px" zoomAndPan="magnify"><defs/><g><g id="elem_DatagramSocket"><rect codeLine="2" fill="#F1F1F1" height="113.1875" id="DatagramSocket" rx="2.5" ry="2.5" style="stroke:#181818;stroke-width:0.5;" width="293" x="23" y="131"/><ellipse cx="107.75" cy="147" fill="#ADD1B2" rx="11" ry="11" style="stroke:#181818;stroke-width:1.0;"/><path d="M110.7188,152.6406 Q110.1406,152.9375 109.5,153.0781 Q108.8594,153.2344 108.1563,153.2344 Q105.6563,153.2344 104.3281,151.5938 Q103.0156,149.9375 103.0156,146.8125 Q103.0156,143.6875 104.3281,142.0313 Q105.6563,140.375 108.1563,140.375 Q108.8594,140.375 109.5,140.5313 Q110.1563,140.6875 110.7188,140.9844 L110.7188,143.7031 Q110.0938,143.125 109.5,142.8594 Q108.9063,142.5781 108.2813,142.5781 Q106.9375,142.5781 106.25,143.6563 Q105.5625,144.7188 105.5625,146.8125 Q105.5625,148.9063 106.25,149.9844 Q106.9375,151.0469 108.2813,151.0469 Q108.9063,151.0469 109.5,150.7813 Q110.0938,150.5 110.7188,149.9219 L110.7188,152.6406 Z " fill="#000000"/><text fill="#000000" font-family="sans-serif" font-size="14" lengthAdjust="spacing" textLength="115" x="128.25" y="151.8467">DatagramSocket</text><line style="stroke:#181818;stroke-width:0.5;" x1="24" x2="315" y1="163" y2="163"/><line style="stroke:#181818;stroke-width:0.5;" x1="24" x2="315" y1="171" y2="171"/><ellipse cx="34" cy="184.6484" fill="#84BE84" rx="3" ry="3" style="stroke:#038048;stroke-width:1.0;"/><text fill="#000000" font-family="sans-serif" font-size="14" lengthAdjust="spacing" textLength="125" x="43" y="187.9951">DatagramSocket()</text><ellipse cx="34" cy="200.9453" fill="#84BE84" rx="3" ry="3" style="stroke:#038048;stroke-width:1.0;"/><text fill="#000000" font-family="sans-serif" font-size="14" lengthAdjust="spacing" textLength="252" x="43" y="204.292">send(packet: DatagramPacket): void</text><ellipse cx="34" cy="217.2422" fill="#84BE84" rx="3" ry="3" style="stroke:#038048;stroke-width:1.0;"/><text fill="#000000" font-family="sans-serif" font-size="14" lengthAdjust="spacing" textLength="267" x="43" y="220.5889">receive(packet: DatagramPacket): void</text><ellipse cx="34" cy="233.5391" fill="#84BE84" rx="3" ry="3" style="stroke:#038048;stroke-width:1.0;"/><text fill="#000000" font-family="sans-serif" font-size="14" lengthAdjust="spacing" textLength="84" x="43" y="236.8857">close(): void</text></g><g id="elem_DatagramPacket"><rect codeLine="9" fill="#F1F1F1" height="259.8594" id="DatagramPacket" rx="2.5" ry="2.5" style="stroke:#181818;stroke-width:0.5;" width="525" x="7" y="304"/><ellipse cx="208.25" cy="320" fill="#ADD1B2" rx="11" ry="11" style="stroke:#181818;stroke-width:1.0;"/><path d="M211.2188,325.6406 Q210.6406,325.9375 210,326.0781 Q209.3594,326.2344 208.6563,326.2344 Q206.1563,326.2344 204.8281,324.5938 Q203.5156,322.9375 203.5156,319.8125 Q203.5156,316.6875 204.8281,315.0313 Q206.1563,313.375 208.6563,313.375 Q209.3594,313.375 210,313.5313 Q210.6563,313.6875 211.2188,313.9844 L211.2188,316.7031 Q210.5938,316.125 210,315.8594 Q209.4063,315.5781 208.7813,315.5781 Q207.4375,315.5781 206.75,316.6563 Q206.0625,317.7188 206.0625,319.8125 Q206.0625,321.9063 206.75,322.9844 Q207.4375,324.0469 208.7813,324.0469 Q209.4063,324.0469 210,323.7813 Q210.5938,323.5 211.2188,322.9219 L211.2188,325.6406 Z " fill="#000000"/><text fill="#000000" font-family="sans-serif" font-size="14" lengthAdjust="spacing" textLength="114" x="228.75" y="324.8467">DatagramPacket</text><line style="stroke:#181818;stroke-width:0.5;" x1="8" x2="531" y1="336" y2="336"/><rect fill="none" height="6" style="stroke:#C82930;stroke-width:1.0;" width="6" x="15" y="346.6484"/><text fill="#000000" font-family="sans-serif" font-size="14" lengthAdjust="spacing" textLength="79" x="27" y="352.9951">data: byte[]</text><rect fill="none" height="6" style="stroke:#C82930;stroke-width:1.0;" width="6" x="15" y="362.9453"/><text fill="#000000" font-family="sans-serif" font-size="14" lengthAdjust="spacing" textLength="70" x="27" y="369.292">length: int</text><rect fill="none" height="6" style="stroke:#C82930;stroke-width:1.0;" width="6" x="15" y="379.2422"/><text fill="#000000" font-family="sans-serif" font-size="14" lengthAdjust="spacing" textLength="148" x="27" y="385.5889">address: InetAddress</text><rect fill="none" height="6" style="stroke:#C82930;stroke-width:1.0;" width="6" x="15" y="395.5391"/><text fill="#000000" font-family="sans-serif" font-size="14" lengthAdjust="spacing" textLength="54" x="27" y="401.8857">port: int</text><line style="stroke:#181818;stroke-width:0.5;" x1="8" x2="531" y1="409.1875" y2="409.1875"/><ellipse cx="18" cy="422.8359" fill="#84BE84" rx="3" ry="3" style="stroke:#038048;stroke-width:1.0;"/><text fill="#000000" font-family="sans-serif" font-size="14" lengthAdjust="spacing" textLength="499" x="27" y="426.1826">DatagramPacket(data: byte[], length: int, address: InetAddress, port: int)</text><ellipse cx="18" cy="439.1328" fill="#84BE84" rx="3" ry="3" style="stroke:#038048;stroke-width:1.0;"/><text fill="#000000" font-family="sans-serif" font-size="14" lengthAdjust="spacing" textLength="114" x="27" y="442.4795">getData(): byte[]</text><ellipse cx="18" cy="455.4297" fill="#84BE84" rx="3" ry="3" style="stroke:#038048;stroke-width:1.0;"/><text fill="#000000" font-family="sans-serif" font-size="14" lengthAdjust="spacing" textLength="107" x="27" y="458.7764">getLength(): int</text><ellipse cx="18" cy="471.7266" fill="#84BE84" rx="3" ry="3" style="stroke:#038048;stroke-width:1.0;"/><text fill="#000000" font-family="sans-serif" font-size="14" lengthAdjust="spacing" textLength="182" x="27" y="475.0732">getAddress(): InetAddress</text><ellipse cx="18" cy="488.0234" fill="#84BE84" rx="3" ry="3" style="stroke:#038048;stroke-width:1.0;"/><text fill="#000000" font-family="sans-serif" font-size="14" lengthAdjust="spacing" textLength="87" x="27" y="491.3701">getPort(): int</text><ellipse cx="18" cy="504.3203" fill="#84BE84" rx="3" ry="3" style="stroke:#038048;stroke-width:1.0;"/><text fill="#000000" font-family="sans-serif" font-size="14" lengthAdjust="spacing" textLength="180" x="27" y="507.667">setData(data: byte[]): void</text><ellipse cx="18" cy="520.6172" fill="#84BE84" rx="3" ry="3" style="stroke:#038048;stroke-width:1.0;"/><text fill="#000000" font-family="sans-serif" font-size="14" lengthAdjust="spacing" textLength="187" x="27" y="523.9639">setLength(length: int): void</text><ellipse cx="18" cy="536.9141" fill="#84BE84" rx="3" ry="3" style="stroke:#038048;stroke-width:1.0;"/><text fill="#000000" font-family="sans-serif" font-size="14" lengthAdjust="spacing" textLength="274" x="27" y="540.2607">setAddress(address: InetAddress): void</text><ellipse cx="18" cy="553.2109" fill="#84BE84" rx="3" ry="3" style="stroke:#038048;stroke-width:1.0;"/><text fill="#000000" font-family="sans-serif" font-size="14" lengthAdjust="spacing" textLength="151" x="27" y="556.5576">setPort(port: int): void</text></g><g id="elem_InetAddress"><rect codeLine="25" fill="#F1F1F1" height="80.5938" id="InetAddress" rx="2.5" ry="2.5" style="stroke:#181818;stroke-width:0.5;" width="288" x="125.5" y="624"/><ellipse cx="223.75" cy="640" fill="#ADD1B2" rx="11" ry="11" style="stroke:#181818;stroke-width:1.0;"/><path d="M226.7188,645.6406 Q226.1406,645.9375 225.5,646.0781 Q224.8594,646.2344 224.1563,646.2344 Q221.6563,646.2344 220.3281,644.5938 Q219.0156,642.9375 219.0156,639.8125 Q219.0156,636.6875 220.3281,635.0313 Q221.6563,633.375 224.1563,633.375 Q224.8594,633.375 225.5,633.5313 Q226.1563,633.6875 226.7188,633.9844 L226.7188,636.7031 Q226.0938,636.125 225.5,635.8594 Q224.9063,635.5781 224.2813,635.5781 Q222.9375,635.5781 222.25,636.6563 Q221.5625,637.7188 221.5625,639.8125 Q221.5625,641.9063 222.25,642.9844 Q222.9375,644.0469 224.2813,644.0469 Q224.9063,644.0469 225.5,643.7813 Q226.0938,643.5 226.7188,642.9219 L226.7188,645.6406 Z " fill="#000000"/><text fill="#000000" font-family="sans-serif" font-size="14" lengthAdjust="spacing" textLength="83" x="244.25" y="644.8467">InetAddress</text><line style="stroke:#181818;stroke-width:0.5;" x1="126.5" x2="412.5" y1="656" y2="656"/><rect fill="none" height="6" style="stroke:#C82930;stroke-width:1.0;" width="6" x="133.5" y="666.6484"/><text fill="#000000" font-family="sans-serif" font-size="14" lengthAdjust="spacing" textLength="105" x="145.5" y="672.9951">address: String</text><line style="stroke:#181818;stroke-width:0.5;" x1="126.5" x2="412.5" y1="680.2969" y2="680.2969"/><ellipse cx="136.5" cy="693.9453" fill="#84BE84" rx="3" ry="3" style="stroke:#038048;stroke-width:1.0;"/><text fill="#000000" font-family="sans-serif" font-size="14" lengthAdjust="spacing" textLength="262" x="145.5" y="697.292">getByName(host: String): InetAddress</text></g><g id="elem_Scanner"><rect codeLine="30" fill="#F1F1F1" height="80.5938" id="Scanner" rx="2.5" ry="2.5" style="stroke:#181818;stroke-width:0.5;" width="143" x="423" y="147"/><ellipse cx="462.3" cy="163" fill="#ADD1B2" rx="11" ry="11" style="stroke:#181818;stroke-width:1.0;"/><path d="M465.2688,168.6406 Q464.6906,168.9375 464.05,169.0781 Q463.4094,169.2344 462.7063,169.2344 Q460.2063,169.2344 458.8781,167.5938 Q457.5656,165.9375 457.5656,162.8125 Q457.5656,159.6875 458.8781,158.0313 Q460.2063,156.375 462.7063,156.375 Q463.4094,156.375 464.05,156.5313 Q464.7063,156.6875 465.2688,156.9844 L465.2688,159.7031 Q464.6438,159.125 464.05,158.8594 Q463.4563,158.5781 462.8313,158.5781 Q461.4875,158.5781 460.8,159.6563 Q460.1125,160.7188 460.1125,162.8125 Q460.1125,164.9063 460.8,165.9844 Q461.4875,167.0469 462.8313,167.0469 Q463.4563,167.0469 464.05,166.7813 Q464.6438,166.5 465.2688,165.9219 L465.2688,168.6406 Z " fill="#000000"/><text fill="#000000" font-family="sans-serif" font-size="14" lengthAdjust="spacing" textLength="57" x="481.7" y="167.8467">Scanner</text><line style="stroke:#181818;stroke-width:0.5;" x1="424" x2="565" y1="179" y2="179"/><line style="stroke:#181818;stroke-width:0.5;" x1="424" x2="565" y1="187" y2="187"/><ellipse cx="434" cy="200.6484" fill="#84BE84" rx="3" ry="3" style="stroke:#038048;stroke-width:1.0;"/><text fill="#000000" font-family="sans-serif" font-size="14" lengthAdjust="spacing" textLength="117" x="443" y="203.9951">nextLine(): String</text><ellipse cx="434" cy="216.9453" fill="#84BE84" rx="3" ry="3" style="stroke:#038048;stroke-width:1.0;"/><text fill="#000000" font-family="sans-serif" font-size="14" lengthAdjust="spacing" textLength="84" x="443" y="220.292">close(): void</text></g><g id="elem_ClientProgram"><rect codeLine="35" fill="#F1F1F1" height="64.2969" id="ClientProgram" rx="2.5" ry="2.5" style="stroke:#181818;stroke-width:0.5;" width="195" x="272" y="7"/><ellipse cx="316.75" cy="23" fill="#ADD1B2" rx="11" ry="11" style="stroke:#181818;stroke-width:1.0;"/><path d="M319.7188,28.6406 Q319.1406,28.9375 318.5,29.0781 Q317.8594,29.2344 317.1563,29.2344 Q314.6563,29.2344 313.3281,27.5938 Q312.0156,25.9375 312.0156,22.8125 Q312.0156,19.6875 313.3281,18.0313 Q314.6563,16.375 317.1563,16.375 Q317.8594,16.375 318.5,16.5313 Q319.1563,16.6875 319.7188,16.9844 L319.7188,19.7031 Q319.0938,19.125 318.5,18.8594 Q317.9063,18.5781 317.2813,18.5781 Q315.9375,18.5781 315.25,19.6563 Q314.5625,20.7188 314.5625,22.8125 Q314.5625,24.9063 315.25,25.9844 Q315.9375,27.0469 317.2813,27.0469 Q317.9063,27.0469 318.5,26.7813 Q319.0938,26.5 319.7188,25.9219 L319.7188,28.6406 Z " fill="#000000"/><text fill="#000000" font-family="sans-serif" font-size="14" lengthAdjust="spacing" textLength="97" x="337.25" y="27.8467">ClientProgram</text><line style="stroke:#181818;stroke-width:0.5;" x1="273" x2="466" y1="39" y2="39"/><line style="stroke:#181818;stroke-width:0.5;" x1="273" x2="466" y1="47" y2="47"/><ellipse cx="283" cy="60.6484" fill="#84BE84" rx="3" ry="3" style="stroke:#038048;stroke-width:1.0;"/><text fill="#000000" font-family="sans-serif" font-size="14" lengthAdjust="spacing" textLength="169" x="292" y="63.9951">main(args: String[]): void</text></g><g id="link_ClientProgram_DatagramSocket"><path codeLine="39" d="M327.085,71.069 C303.35,88.455 277.8884,107.1055 250.2104,127.3795 " fill="none" id="ClientProgram-to-DatagramSocket" style="stroke:#181818;stroke-width:1.0;"/><polygon fill="#181818" points="245.37,130.925,254.9942,128.8336,249.4036,127.9704,250.2669,122.3798,245.37,130.925" style="stroke:#181818;stroke-width:1.0;"/></g><g id="link_ClientProgram_DatagramPacket"><path codeLine="40" d="M365.514,71.07 C360.008,111.337 348.973,183.551 333.5,244 C328.496,263.549 324.2781,278.2704 317.9321,298.1804 " fill="none" id="ClientProgram-to-DatagramPacket" style="stroke:#181818;stroke-width:1.0;"/><polygon fill="#181818" points="316.11,303.897,322.6542,296.5368,317.6284,299.1331,315.032,294.1073,316.11,303.897" style="stroke:#181818;stroke-width:1.0;"/></g><g id="link_ClientProgram_Scanner"><path codeLine="41" d="M396.009,71.069 C414.857,93.159 436.4357,118.4476 456.7527,142.2606 " fill="none" id="ClientProgram-to-Scanner" style="stroke:#181818;stroke-width:1.0;"/><polygon fill="#181818" points="460.647,146.825,457.8485,137.3821,457.4017,143.0213,451.7625,142.5746,460.647,146.825" style="stroke:#181818;stroke-width:1.0;"/></g><g id="link_DatagramSocket_DatagramPacket"><path codeLine="42" d="M192.317,244.287 C199.638,262.186 205.8035,277.2636 214.3545,298.1696 " fill="none" id="DatagramSocket-to-DatagramPacket" style="stroke:#181818;stroke-width:1.0;"/><polygon fill="#181818" points="216.626,303.723,216.9211,293.8786,214.7331,299.0952,209.5165,296.9072,216.626,303.723" style="stroke:#181818;stroke-width:1.0;"/></g><g id="link_DatagramPacket_InetAddress"><path codeLine="43" d="M269.5,564.273 C269.5,585.883 269.5,600.7632 269.5,617.7483 " fill="none" id="DatagramPacket-to-InetAddress" style="stroke:#181818;stroke-width:1.0;"/><polygon fill="#181818" points="269.5,623.7483,273.5,614.7483,269.5,618.7483,265.5,614.7483,269.5,623.7483" style="stroke:#181818;stroke-width:1.0;"/></g></g></svg>