<?xml version="1.0" encoding="us-ascii" standalone="no"?><svg xmlns="http://www.w3.org/2000/svg" xmlns:xlink="http://www.w3.org/1999/xlink" contentStyleType="text/css" height="397px" preserveAspectRatio="none" style="width:1745px;height:397px;background:#FFFFFF;" version="1.1" viewBox="0 0 1745 397" width="1745px" zoomAndPan="magnify"><defs/><g><g id="elem_DatagramSocket"><rect codeLine="2" fill="#F1F1F1" height="113.1875" id="DatagramSocket" rx="2.5" ry="2.5" style="stroke:#181818;stroke-width:0.5;" width="293" x="7" y="204.5"/><ellipse cx="91.75" cy="220.5" fill="#ADD1B2" rx="11" ry="11" style="stroke:#181818;stroke-width:1.0;"/><path d="M94.7188,226.1406 Q94.1406,226.4375 93.5,226.5781 Q92.8594,226.7344 92.1563,226.7344 Q89.6563,226.7344 88.3281,225.0938 Q87.0156,223.4375 87.0156,220.3125 Q87.0156,217.1875 88.3281,215.5313 Q89.6563,213.875 92.1563,213.875 Q92.8594,213.875 93.5,214.0313 Q94.1563,214.1875 94.7188,214.4844 L94.7188,217.2031 Q94.0938,216.625 93.5,216.3594 Q92.9063,216.0781 92.2813,216.0781 Q90.9375,216.0781 90.25,217.1563 Q89.5625,218.2188 89.5625,220.3125 Q89.5625,222.4063 90.25,223.4844 Q90.9375,224.5469 92.2813,224.5469 Q92.9063,224.5469 93.5,224.2813 Q94.0938,224 94.7188,223.4219 L94.7188,226.1406 Z " fill="#000000"/><text fill="#000000" font-family="sans-serif" font-size="14" lengthAdjust="spacing" textLength="115" x="112.25" y="225.3467">DatagramSocket</text><line style="stroke:#181818;stroke-width:0.5;" x1="8" x2="299" y1="236.5" y2="236.5"/><line style="stroke:#181818;stroke-width:0.5;" x1="8" x2="299" y1="244.5" y2="244.5"/><ellipse cx="18" cy="258.1484" fill="#84BE84" rx="3" ry="3" style="stroke:#038048;stroke-width:1.0;"/><text fill="#000000" font-family="sans-serif" font-size="14" lengthAdjust="spacing" textLength="125" x="27" y="261.4951">DatagramSocket()</text><ellipse cx="18" cy="274.4453" fill="#84BE84" rx="3" ry="3" style="stroke:#038048;stroke-width:1.0;"/><text fill="#000000" font-family="sans-serif" font-size="14" lengthAdjust="spacing" textLength="252" x="27" y="277.792">send(packet: DatagramPacket): void</text><ellipse cx="18" cy="290.7422" fill="#84BE84" rx="3" ry="3" style="stroke:#038048;stroke-width:1.0;"/><text fill="#000000" font-family="sans-serif" font-size="14" lengthAdjust="spacing" textLength="267" x="27" y="294.0889">receive(packet: DatagramPacket): void</text><ellipse cx="18" cy="307.0391" fill="#84BE84" rx="3" ry="3" style="stroke:#038048;stroke-width:1.0;"/><text fill="#000000" font-family="sans-serif" font-size="14" lengthAdjust="spacing" textLength="84" x="27" y="310.3857">close(): void</text></g><g id="elem_DatagramPacket"><rect codeLine="9" fill="#F1F1F1" height="259.8594" id="DatagramPacket" rx="2.5" ry="2.5" style="stroke:#181818;stroke-width:0.5;" width="525" x="335" y="131"/><ellipse cx="536.25" cy="147" fill="#ADD1B2" rx="11" ry="11" style="stroke:#181818;stroke-width:1.0;"/><path d="M539.2188,152.6406 Q538.6406,152.9375 538,153.0781 Q537.3594,153.2344 536.6563,153.2344 Q534.1563,153.2344 532.8281,151.5938 Q531.5156,149.9375 531.5156,146.8125 Q531.5156,143.6875 532.8281,142.0313 Q534.1563,140.375 536.6563,140.375 Q537.3594,140.375 538,140.5313 Q538.6563,140.6875 539.2188,140.9844 L539.2188,143.7031 Q538.5938,143.125 538,142.8594 Q537.4063,142.5781 536.7813,142.5781 Q535.4375,142.5781 534.75,143.6563 Q534.0625,144.7188 534.0625,146.8125 Q534.0625,148.9063 534.75,149.9844 Q535.4375,151.0469 536.7813,151.0469 Q537.4063,151.0469 538,150.7813 Q538.5938,150.5 539.2188,149.9219 L539.2188,152.6406 Z " fill="#000000"/><text fill="#000000" font-family="sans-serif" font-size="14" lengthAdjust="spacing" textLength="114" x="556.75" y="151.8467">DatagramPacket</text><line style="stroke:#181818;stroke-width:0.5;" x1="336" x2="859" y1="163" y2="163"/><rect fill="none" height="6" style="stroke:#C82930;stroke-width:1.0;" width="6" x="343" y="173.6484"/><text fill="#000000" font-family="sans-serif" font-size="14" lengthAdjust="spacing" textLength="79" x="355" y="179.9951">data: byte[]</text><rect fill="none" height="6" style="stroke:#C82930;stroke-width:1.0;" width="6" x="343" y="189.9453"/><text fill="#000000" font-family="sans-serif" font-size="14" lengthAdjust="spacing" textLength="70" x="355" y="196.292">length: int</text><rect fill="none" height="6" style="stroke:#C82930;stroke-width:1.0;" width="6" x="343" y="206.2422"/><text fill="#000000" font-family="sans-serif" font-size="14" lengthAdjust="spacing" textLength="148" x="355" y="212.5889">address: InetAddress</text><rect fill="none" height="6" style="stroke:#C82930;stroke-width:1.0;" width="6" x="343" y="222.5391"/><text fill="#000000" font-family="sans-serif" font-size="14" lengthAdjust="spacing" textLength="54" x="355" y="228.8857">port: int</text><line style="stroke:#181818;stroke-width:0.5;" x1="336" x2="859" y1="236.1875" y2="236.1875"/><ellipse cx="346" cy="249.8359" fill="#84BE84" rx="3" ry="3" style="stroke:#038048;stroke-width:1.0;"/><text fill="#000000" font-family="sans-serif" font-size="14" lengthAdjust="spacing" textLength="499" x="355" y="253.1826">DatagramPacket(data: byte[], length: int, address: InetAddress, port: int)</text><ellipse cx="346" cy="266.1328" fill="#84BE84" rx="3" ry="3" style="stroke:#038048;stroke-width:1.0;"/><text fill="#000000" font-family="sans-serif" font-size="14" lengthAdjust="spacing" textLength="114" x="355" y="269.4795">getData(): byte[]</text><ellipse cx="346" cy="282.4297" fill="#84BE84" rx="3" ry="3" style="stroke:#038048;stroke-width:1.0;"/><text fill="#000000" font-family="sans-serif" font-size="14" lengthAdjust="spacing" textLength="107" x="355" y="285.7764">getLength(): int</text><ellipse cx="346" cy="298.7266" fill="#84BE84" rx="3" ry="3" style="stroke:#038048;stroke-width:1.0;"/><text fill="#000000" font-family="sans-serif" font-size="14" lengthAdjust="spacing" textLength="182" x="355" y="302.0732">getAddress(): InetAddress</text><ellipse cx="346" cy="315.0234" fill="#84BE84" rx="3" ry="3" style="stroke:#038048;stroke-width:1.0;"/><text fill="#000000" font-family="sans-serif" font-size="14" lengthAdjust="spacing" textLength="87" x="355" y="318.3701">getPort(): int</text><ellipse cx="346" cy="331.3203" fill="#84BE84" rx="3" ry="3" style="stroke:#038048;stroke-width:1.0;"/><text fill="#000000" font-family="sans-serif" font-size="14" lengthAdjust="spacing" textLength="180" x="355" y="334.667">setData(data: byte[]): void</text><ellipse cx="346" cy="347.6172" fill="#84BE84" rx="3" ry="3" style="stroke:#038048;stroke-width:1.0;"/><text fill="#000000" font-family="sans-serif" font-size="14" lengthAdjust="spacing" textLength="187" x="355" y="350.9639">setLength(length: int): void</text><ellipse cx="346" cy="363.9141" fill="#84BE84" rx="3" ry="3" style="stroke:#038048;stroke-width:1.0;"/><text fill="#000000" font-family="sans-serif" font-size="14" lengthAdjust="spacing" textLength="274" x="355" y="367.2607">setAddress(address: InetAddress): void</text><ellipse cx="346" cy="380.2109" fill="#84BE84" rx="3" ry="3" style="stroke:#038048;stroke-width:1.0;"/><text fill="#000000" font-family="sans-serif" font-size="14" lengthAdjust="spacing" textLength="151" x="355" y="383.5576">setPort(port: int): void</text></g><g id="elem_InetAddress"><rect codeLine="25" fill="#F1F1F1" height="80.5938" id="InetAddress" rx="2.5" ry="2.5" style="stroke:#181818;stroke-width:0.5;" width="288" x="895.5" y="220.5"/><ellipse cx="993.75" cy="236.5" fill="#ADD1B2" rx="11" ry="11" style="stroke:#181818;stroke-width:1.0;"/><path d="M996.7188,242.1406 Q996.1406,242.4375 995.5,242.5781 Q994.8594,242.7344 994.1563,242.7344 Q991.6563,242.7344 990.3281,241.0938 Q989.0156,239.4375 989.0156,236.3125 Q989.0156,233.1875 990.3281,231.5313 Q991.6563,229.875 994.1563,229.875 Q994.8594,229.875 995.5,230.0313 Q996.1563,230.1875 996.7188,230.4844 L996.7188,233.2031 Q996.0938,232.625 995.5,232.3594 Q994.9063,232.0781 994.2813,232.0781 Q992.9375,232.0781 992.25,233.1563 Q991.5625,234.2188 991.5625,236.3125 Q991.5625,238.4063 992.25,239.4844 Q992.9375,240.5469 994.2813,240.5469 Q994.9063,240.5469 995.5,240.2813 Q996.0938,240 996.7188,239.4219 L996.7188,242.1406 Z " fill="#000000"/><text fill="#000000" font-family="sans-serif" font-size="14" lengthAdjust="spacing" textLength="83" x="1014.25" y="241.3467">InetAddress</text><line style="stroke:#181818;stroke-width:0.5;" x1="896.5" x2="1182.5" y1="252.5" y2="252.5"/><rect fill="none" height="6" style="stroke:#C82930;stroke-width:1.0;" width="6" x="903.5" y="263.1484"/><text fill="#000000" font-family="sans-serif" font-size="14" lengthAdjust="spacing" textLength="105" x="915.5" y="269.4951">address: String</text><line style="stroke:#181818;stroke-width:0.5;" x1="896.5" x2="1182.5" y1="276.7969" y2="276.7969"/><ellipse cx="906.5" cy="290.4453" fill="#84BE84" rx="3" ry="3" style="stroke:#038048;stroke-width:1.0;"/><text fill="#000000" font-family="sans-serif" font-size="14" lengthAdjust="spacing" textLength="262" x="915.5" y="293.792">getByName(host: String): InetAddress</text></g><g id="elem_SimpleDateFormat"><rect codeLine="30" fill="#F1F1F1" height="64.2969" id="SimpleDateFormat" rx="2.5" ry="2.5" style="stroke:#181818;stroke-width:0.5;" width="202" x="1218.5" y="229"/><ellipse cx="1252.85" cy="245" fill="#ADD1B2" rx="11" ry="11" style="stroke:#181818;stroke-width:1.0;"/><path d="M1255.8188,250.6406 Q1255.2406,250.9375 1254.6,251.0781 Q1253.9594,251.2344 1253.2563,251.2344 Q1250.7563,251.2344 1249.4281,249.5938 Q1248.1156,247.9375 1248.1156,244.8125 Q1248.1156,241.6875 1249.4281,240.0313 Q1250.7563,238.375 1253.2563,238.375 Q1253.9594,238.375 1254.6,238.5313 Q1255.2563,238.6875 1255.8188,238.9844 L1255.8188,241.7031 Q1255.1938,241.125 1254.6,240.8594 Q1254.0063,240.5781 1253.3813,240.5781 Q1252.0375,240.5781 1251.35,241.6563 Q1250.6625,242.7188 1250.6625,244.8125 Q1250.6625,246.9063 1251.35,247.9844 Q1252.0375,249.0469 1253.3813,249.0469 Q1254.0063,249.0469 1254.6,248.7813 Q1255.1938,248.5 1255.8188,247.9219 L1255.8188,250.6406 Z " fill="#000000"/><text fill="#000000" font-family="sans-serif" font-size="14" lengthAdjust="spacing" textLength="127" x="1271.15" y="249.8467">SimpleDateFormat</text><line style="stroke:#181818;stroke-width:0.5;" x1="1219.5" x2="1419.5" y1="261" y2="261"/><line style="stroke:#181818;stroke-width:0.5;" x1="1219.5" x2="1419.5" y1="269" y2="269"/><rect fill="#F24D5C" height="6" style="stroke:#C82930;stroke-width:1.0;" width="6" x="1226.5" y="279.6484"/><text fill="#000000" font-family="sans-serif" font-size="14" lengthAdjust="spacing" textLength="176" x="1238.5" y="285.9951">format(date: Date): String</text></g><g id="elem_Date"><rect codeLine="34" fill="#F1F1F1" height="64.2969" id="Date" rx="2.5" ry="2.5" style="stroke:#181818;stroke-width:0.5;" width="110" x="1455.5" y="229"/><ellipse cx="1490.75" cy="245" fill="#ADD1B2" rx="11" ry="11" style="stroke:#181818;stroke-width:1.0;"/><path d="M1493.7188,250.6406 Q1493.1406,250.9375 1492.5,251.0781 Q1491.8594,251.2344 1491.1563,251.2344 Q1488.6563,251.2344 1487.3281,249.5938 Q1486.0156,247.9375 1486.0156,244.8125 Q1486.0156,241.6875 1487.3281,240.0313 Q1488.6563,238.375 1491.1563,238.375 Q1491.8594,238.375 1492.5,238.5313 Q1493.1563,238.6875 1493.7188,238.9844 L1493.7188,241.7031 Q1493.0938,241.125 1492.5,240.8594 Q1491.9063,240.5781 1491.2813,240.5781 Q1489.9375,240.5781 1489.25,241.6563 Q1488.5625,242.7188 1488.5625,244.8125 Q1488.5625,246.9063 1489.25,247.9844 Q1489.9375,249.0469 1491.2813,249.0469 Q1491.9063,249.0469 1492.5,248.7813 Q1493.0938,248.5 1493.7188,247.9219 L1493.7188,250.6406 Z " fill="#000000"/><text fill="#000000" font-family="sans-serif" font-size="14" lengthAdjust="spacing" textLength="33" x="1509.25" y="249.8467">Date</text><line style="stroke:#181818;stroke-width:0.5;" x1="1456.5" x2="1564.5" y1="261" y2="261"/><text fill="#000000" font-family="sans-serif" font-size="14" lengthAdjust="spacing" textLength="98" x="1461.5" y="277.9951">// &#30465;&#30053;&#20854;&#20182;&#25104;&#21592;</text><line style="stroke:#181818;stroke-width:0.5;" x1="1456.5" x2="1564.5" y1="285.2969" y2="285.2969"/></g><g id="elem_System"><rect codeLine="38" fill="#F1F1F1" height="64.2969" id="System" rx="2.5" ry="2.5" style="stroke:#181818;stroke-width:0.5;" width="138" x="1600.5" y="229"/><ellipse cx="1640.25" cy="245" fill="#ADD1B2" rx="11" ry="11" style="stroke:#181818;stroke-width:1.0;"/><path d="M1643.2188,250.6406 Q1642.6406,250.9375 1642,251.0781 Q1641.3594,251.2344 1640.6563,251.2344 Q1638.1563,251.2344 1636.8281,249.5938 Q1635.5156,247.9375 1635.5156,244.8125 Q1635.5156,241.6875 1636.8281,240.0313 Q1638.1563,238.375 1640.6563,238.375 Q1641.3594,238.375 1642,238.5313 Q1642.6563,238.6875 1643.2188,238.9844 L1643.2188,241.7031 Q1642.5938,241.125 1642,240.8594 Q1641.4063,240.5781 1640.7813,240.5781 Q1639.4375,240.5781 1638.75,241.6563 Q1638.0625,242.7188 1638.0625,244.8125 Q1638.0625,246.9063 1638.75,247.9844 Q1639.4375,249.0469 1640.7813,249.0469 Q1641.4063,249.0469 1642,248.7813 Q1642.5938,248.5 1643.2188,247.9219 L1643.2188,250.6406 Z " fill="#000000"/><text fill="#000000" font-family="sans-serif" font-size="14" lengthAdjust="spacing" textLength="51" x="1659.75" y="249.8467">System</text><line style="stroke:#181818;stroke-width:0.5;" x1="1601.5" x2="1737.5" y1="261" y2="261"/><ellipse cx="1611.5" cy="274.6484" fill="none" rx="3" ry="3" style="stroke:#038048;stroke-width:1.0;"/><text fill="#000000" font-family="sans-serif" font-size="14" lengthAdjust="spacing" textLength="112" x="1620.5" y="277.9951">out: PrintStream</text><line style="stroke:#181818;stroke-width:0.5;" x1="1601.5" x2="1737.5" y1="285.2969" y2="285.2969"/></g><g id="elem_PrintStream"><rect codeLine="42" fill="#F1F1F1" height="64.2969" id="PrintStream" rx="2.5" ry="2.5" style="stroke:#181818;stroke-width:0.5;" width="172" x="1312.5" y="7"/><ellipse cx="1354.5" cy="23" fill="#ADD1B2" rx="11" ry="11" style="stroke:#181818;stroke-width:1.0;"/><path d="M1357.4688,28.6406 Q1356.8906,28.9375 1356.25,29.0781 Q1355.6094,29.2344 1354.9063,29.2344 Q1352.4063,29.2344 1351.0781,27.5938 Q1349.7656,25.9375 1349.7656,22.8125 Q1349.7656,19.6875 1351.0781,18.0313 Q1352.4063,16.375 1354.9063,16.375 Q1355.6094,16.375 1356.25,16.5313 Q1356.9063,16.6875 1357.4688,16.9844 L1357.4688,19.7031 Q1356.8438,19.125 1356.25,18.8594 Q1355.6563,18.5781 1355.0313,18.5781 Q1353.6875,18.5781 1353,19.6563 Q1352.3125,20.7188 1352.3125,22.8125 Q1352.3125,24.9063 1353,25.9844 Q1353.6875,27.0469 1355.0313,27.0469 Q1355.6563,27.0469 1356.25,26.7813 Q1356.8438,26.5 1357.4688,25.9219 L1357.4688,28.6406 Z " fill="#000000"/><text fill="#000000" font-family="sans-serif" font-size="14" lengthAdjust="spacing" textLength="80" x="1374.5" y="27.8467">PrintStream</text><line style="stroke:#181818;stroke-width:0.5;" x1="1313.5" x2="1483.5" y1="39" y2="39"/><line style="stroke:#181818;stroke-width:0.5;" x1="1313.5" x2="1483.5" y1="47" y2="47"/><ellipse cx="1323.5" cy="60.6484" fill="#84BE84" rx="3" ry="3" style="stroke:#038048;stroke-width:1.0;"/><text fill="#000000" font-family="sans-serif" font-size="14" lengthAdjust="spacing" textLength="146" x="1332.5" y="63.9951">println(x: String): void</text></g><g id="elem_ServerProgram"><rect codeLine="46" fill="#F1F1F1" height="64.2969" id="ServerProgram" rx="2.5" ry="2.5" style="stroke:#181818;stroke-width:0.5;" width="195" x="1082" y="7"/><ellipse cx="1124.45" cy="23" fill="#ADD1B2" rx="11" ry="11" style="stroke:#181818;stroke-width:1.0;"/><path d="M1127.4188,28.6406 Q1126.8406,28.9375 1126.2,29.0781 Q1125.5594,29.2344 1124.8563,29.2344 Q1122.3563,29.2344 1121.0281,27.5938 Q1119.7156,25.9375 1119.7156,22.8125 Q1119.7156,19.6875 1121.0281,18.0313 Q1122.3563,16.375 1124.8563,16.375 Q1125.5594,16.375 1126.2,16.5313 Q1126.8563,16.6875 1127.4188,16.9844 L1127.4188,19.7031 Q1126.7938,19.125 1126.2,18.8594 Q1125.6063,18.5781 1124.9813,18.5781 Q1123.6375,18.5781 1122.95,19.6563 Q1122.2625,20.7188 1122.2625,22.8125 Q1122.2625,24.9063 1122.95,25.9844 Q1123.6375,27.0469 1124.9813,27.0469 Q1125.6063,27.0469 1126.2,26.7813 Q1126.7938,26.5 1127.4188,25.9219 L1127.4188,28.6406 Z " fill="#000000"/><text fill="#000000" font-family="sans-serif" font-size="14" lengthAdjust="spacing" textLength="102" x="1144.55" y="27.8467">ServerProgram</text><line style="stroke:#181818;stroke-width:0.5;" x1="1083" x2="1276" y1="39" y2="39"/><line style="stroke:#181818;stroke-width:0.5;" x1="1083" x2="1276" y1="47" y2="47"/><ellipse cx="1093" cy="60.6484" fill="#84BE84" rx="3" ry="3" style="stroke:#038048;stroke-width:1.0;"/><text fill="#000000" font-family="sans-serif" font-size="14" lengthAdjust="spacing" textLength="169" x="1102" y="63.9951">main(args: String[]): void</text></g><g id="link_ServerProgram_DatagramSocket"><path codeLine="50" d="M1081.78,43.523 C886.283,51.672 454.045,75.535 317.5,131 C276.723,147.564 242.1637,173.4425 212.4267,200.2875 " fill="none" id="ServerProgram-to-DatagramSocket" style="stroke:#181818;stroke-width:1.0;"/><polygon fill="#181818" points="207.973,204.308,217.3339,201.2463,211.6844,200.9575,211.9732,195.3081,207.973,204.308" style="stroke:#181818;stroke-width:1.0;"/></g><g id="link_ServerProgram_DatagramPacket"><path codeLine="51" d="M1081.79,65.72 C1022.09,82.349 944.58,105.582 877.5,131 C871.744,133.181 871.5231,133.226 865.6871,135.526 " fill="none" id="ServerProgram-to-DatagramPacket" style="stroke:#181818;stroke-width:1.0;"/><polygon fill="#181818" points="860.105,137.726,869.9448,138.1475,864.7568,135.8927,867.0116,130.7047,860.105,137.726" style="stroke:#181818;stroke-width:1.0;"/></g><g id="link_ServerProgram_InetAddress"><path codeLine="52" d="M1159.74,71.054 C1134.87,110.14 1095.3315,172.2722 1068.0715,215.1042 " fill="none" id="ServerProgram-to-InetAddress" style="stroke:#181818;stroke-width:1.0;"/><polygon fill="#181818" points="1064.85,220.166,1073.0568,214.721,1067.5346,215.9478,1066.3078,210.4256,1064.85,220.166" style="stroke:#181818;stroke-width:1.0;"/></g><g id="link_ServerProgram_SimpleDateFormat"><path codeLine="53" d="M1199.26,71.054 C1225.87,112.865 1269.7189,181.775 1296.3889,223.687 " fill="none" id="ServerProgram-to-SimpleDateFormat" style="stroke:#181818;stroke-width:1.0;"/><polygon fill="#181818" points="1299.61,228.749,1298.153,219.0085,1296.9257,224.5306,1291.4036,223.3034,1299.61,228.749" style="stroke:#181818;stroke-width:1.0;"/></g><g id="link_ServerProgram_Date"><path codeLine="54" d="M1277.14,66.479 C1339.51,84.851 1413.25,109.743 1438.5,131 C1469.4,157.018 1487.4225,194.2323 1498.3425,223.3403 " fill="none" id="ServerProgram-to-Date" style="stroke:#181818;stroke-width:1.0;"/><polygon fill="#181818" points="1500.45,228.958,1501.0339,219.1265,1498.6937,224.2766,1493.5436,221.9365,1500.45,228.958" style="stroke:#181818;stroke-width:1.0;"/></g><g id="link_ServerProgram_System"><path codeLine="55" d="M1277.18,66.522 C1283.37,68.073 1289.52,69.579 1295.5,71 C1422.71,101.223 1475.15,57.813 1583.5,131 C1618.96,154.956 1641.0732,193.4521 1654.6132,223.3271 " fill="none" id="ServerProgram-to-System" style="stroke:#181818;stroke-width:1.0;"/><polygon fill="#181818" points="1657.09,228.792,1657.018,218.9434,1655.026,224.2379,1649.7315,222.2458,1657.09,228.792" style="stroke:#181818;stroke-width:1.0;"/></g></g></svg>