<?xml version="1.0" encoding="us-ascii" standalone="no"?><svg xmlns="http://www.w3.org/2000/svg" xmlns:xlink="http://www.w3.org/1999/xlink" contentStyleType="text/css" height="218px" preserveAspectRatio="none" style="width:824px;height:218px;background:#FFFFFF;" version="1.1" viewBox="0 0 824 218" width="824px" zoomAndPan="magnify"><defs/><g><g id="elem_ServerSocket"><rect codeLine="2" fill="#F1F1F1" height="64.2969" id="ServerSocket" rx="2.5" ry="2.5" style="stroke:#181818;stroke-width:0.5;" width="152" x="7" y="7"/><ellipse cx="34.6" cy="23" fill="#ADD1B2" rx="11" ry="11" style="stroke:#181818;stroke-width:1.0;"/><path d="M37.5688,28.6406 Q36.9906,28.9375 36.35,29.0781 Q35.7094,29.2344 35.0063,29.2344 Q32.5063,29.2344 31.1781,27.5938 Q29.8656,25.9375 29.8656,22.8125 Q29.8656,19.6875 31.1781,18.0313 Q32.5063,16.375 35.0063,16.375 Q35.7094,16.375 36.35,16.5313 Q37.0063,16.6875 37.5688,16.9844 L37.5688,19.7031 Q36.9438,19.125 36.35,18.8594 Q35.7563,18.5781 35.1313,18.5781 Q33.7875,18.5781 33.1,19.6563 Q32.4125,20.7188 32.4125,22.8125 Q32.4125,24.9063 33.1,25.9844 Q33.7875,27.0469 35.1313,27.0469 Q35.7563,27.0469 36.35,26.7813 Q36.9438,26.5 37.5688,25.9219 L37.5688,28.6406 Z " fill="#000000"/><text fill="#000000" font-family="sans-serif" font-size="14" lengthAdjust="spacing" textLength="92" x="51.4" y="27.8467">ServerSocket</text><line style="stroke:#181818;stroke-width:0.5;" x1="8" x2="158" y1="39" y2="39"/><text fill="#000000" font-family="sans-serif" font-size="14" lengthAdjust="spacing" textLength="140" x="13" y="55.9951">// &#30465;&#30053;&#20854;&#20182;&#25104;&#21592;&#21644;&#26041;&#27861;</text><line style="stroke:#181818;stroke-width:0.5;" x1="8" x2="158" y1="63.2969" y2="63.2969"/></g><g id="elem_SocketImpl"><rect codeLine="6" fill="#F1F1F1" height="64.2969" id="SocketImpl" rx="2.5" ry="2.5" style="stroke:#181818;stroke-width:0.5;" width="152" x="194" y="7"/><ellipse cx="228.8" cy="23" fill="#ADD1B2" rx="11" ry="11" style="stroke:#181818;stroke-width:1.0;"/><path d="M231.7688,28.6406 Q231.1906,28.9375 230.55,29.0781 Q229.9094,29.2344 229.2063,29.2344 Q226.7063,29.2344 225.3781,27.5938 Q224.0656,25.9375 224.0656,22.8125 Q224.0656,19.6875 225.3781,18.0313 Q226.7063,16.375 229.2063,16.375 Q229.9094,16.375 230.55,16.5313 Q231.2063,16.6875 231.7688,16.9844 L231.7688,19.7031 Q231.1438,19.125 230.55,18.8594 Q229.9563,18.5781 229.3313,18.5781 Q227.9875,18.5781 227.3,19.6563 Q226.6125,20.7188 226.6125,22.8125 Q226.6125,24.9063 227.3,25.9844 Q227.9875,27.0469 229.3313,27.0469 Q229.9563,27.0469 230.55,26.7813 Q231.1438,26.5 231.7688,25.9219 L231.7688,28.6406 Z " fill="#000000"/><text fill="#000000" font-family="sans-serif" font-size="14" lengthAdjust="spacing" textLength="76" x="247.2" y="27.8467">SocketImpl</text><line style="stroke:#181818;stroke-width:0.5;" x1="195" x2="345" y1="39" y2="39"/><text fill="#000000" font-family="sans-serif" font-size="14" lengthAdjust="spacing" textLength="140" x="200" y="55.9951">// &#30465;&#30053;&#20854;&#20182;&#25104;&#21592;&#21644;&#26041;&#27861;</text><line style="stroke:#181818;stroke-width:0.5;" x1="195" x2="345" y1="63.2969" y2="63.2969"/></g><g id="elem_MyStreamSocket"><rect codeLine="10" fill="#F1F1F1" height="64.2969" id="MyStreamSocket" rx="2.5" ry="2.5" style="stroke:#181818;stroke-width:0.5;" width="436" x="381" y="7"/><ellipse cx="536.75" cy="23" fill="#ADD1B2" rx="11" ry="11" style="stroke:#181818;stroke-width:1.0;"/><path d="M539.7188,28.6406 Q539.1406,28.9375 538.5,29.0781 Q537.8594,29.2344 537.1563,29.2344 Q534.6563,29.2344 533.3281,27.5938 Q532.0156,25.9375 532.0156,22.8125 Q532.0156,19.6875 533.3281,18.0313 Q534.6563,16.375 537.1563,16.375 Q537.8594,16.375 538.5,16.5313 Q539.1563,16.6875 539.7188,16.9844 L539.7188,19.7031 Q539.0938,19.125 538.5,18.8594 Q537.9063,18.5781 537.2813,18.5781 Q535.9375,18.5781 535.25,19.6563 Q534.5625,20.7188 534.5625,22.8125 Q534.5625,24.9063 535.25,25.9844 Q535.9375,27.0469 537.2813,27.0469 Q537.9063,27.0469 538.5,26.7813 Q539.0938,26.5 539.7188,25.9219 L539.7188,28.6406 Z " fill="#000000"/><text fill="#000000" font-family="sans-serif" font-size="14" lengthAdjust="spacing" textLength="116" x="557.25" y="27.8467">MyStreamSocket</text><line style="stroke:#181818;stroke-width:0.5;" x1="382" x2="816" y1="39" y2="39"/><line style="stroke:#181818;stroke-width:0.5;" x1="382" x2="816" y1="47" y2="47"/><ellipse cx="392" cy="60.6484" fill="#84BE84" rx="3" ry="3" style="stroke:#038048;stroke-width:1.0;"/><text fill="#000000" font-family="sans-serif" font-size="14" lengthAdjust="spacing" textLength="410" x="401" y="63.9951">MyStreamSocket(impl: SocketImpl) throws SocketException</text></g><g id="elem_MyStreamServerSocket"><rect codeLine="14" fill="#F1F1F1" height="80.5938" id="MyStreamServerSocket" rx="2.5" ry="2.5" style="stroke:#181818;stroke-width:0.5;" width="387" x="76.5" y="131"/><ellipse cx="185.75" cy="147" fill="#ADD1B2" rx="11" ry="11" style="stroke:#181818;stroke-width:1.0;"/><path d="M188.7188,152.6406 Q188.1406,152.9375 187.5,153.0781 Q186.8594,153.2344 186.1563,153.2344 Q183.6563,153.2344 182.3281,151.5938 Q181.0156,149.9375 181.0156,146.8125 Q181.0156,143.6875 182.3281,142.0313 Q183.6563,140.375 186.1563,140.375 Q186.8594,140.375 187.5,140.5313 Q188.1563,140.6875 188.7188,140.9844 L188.7188,143.7031 Q188.0938,143.125 187.5,142.8594 Q186.9063,142.5781 186.2813,142.5781 Q184.9375,142.5781 184.25,143.6563 Q183.5625,144.7188 183.5625,146.8125 Q183.5625,148.9063 184.25,149.9844 Q184.9375,151.0469 186.2813,151.0469 Q186.9063,151.0469 187.5,150.7813 Q188.0938,150.5 188.7188,149.9219 L188.7188,152.6406 Z " fill="#000000"/><text fill="#000000" font-family="sans-serif" font-size="14" lengthAdjust="spacing" textLength="160" x="206.25" y="151.8467">MyStreamServerSocket</text><line style="stroke:#181818;stroke-width:0.5;" x1="77.5" x2="462.5" y1="163" y2="163"/><line style="stroke:#181818;stroke-width:0.5;" x1="77.5" x2="462.5" y1="171" y2="171"/><ellipse cx="87.5" cy="184.6484" fill="#84BE84" rx="3" ry="3" style="stroke:#038048;stroke-width:1.0;"/><text fill="#000000" font-family="sans-serif" font-size="14" lengthAdjust="spacing" textLength="361" x="96.5" y="187.9951">MyStreamServerSocket(port: int) throws IOException</text><ellipse cx="87.5" cy="200.9453" fill="#84BE84" rx="3" ry="3" style="stroke:#038048;stroke-width:1.0;"/><text fill="#000000" font-family="sans-serif" font-size="14" lengthAdjust="spacing" textLength="319" x="96.5" y="204.292">accept(): MyStreamSocket throws IOException</text></g><g id="link_ServerSocket_MyStreamServerSocket"><path codeLine="19" d="M132.7113,74.6917 C158.3193,92.5627 185.771,111.72 213.157,130.8315 " fill="none" id="ServerSocket-backto-MyStreamServerSocket" style="stroke:#181818;stroke-width:1.0;"/><polygon fill="#181818" points="127.791,71.258,132.8823,79.6888,131.8913,74.1194,137.4606,73.1284,127.791,71.258" style="stroke:#181818;stroke-width:1.0;"/></g><g id="link_MyStreamSocket_MyStreamServerSocket"><path codeLine="20" d="M515.0368,73.3043 C469.8028,91.2473 418.046,111.776 369.637,130.9784 " fill="none" id="MyStreamSocket-backto-MyStreamServerSocket" style="stroke:#181818;stroke-width:1.0;"/><polygon fill="#181818" points="520.614,71.092,510.7733,70.6923,515.9663,72.9356,513.723,78.1287,520.614,71.092" style="stroke:#181818;stroke-width:1.0;"/></g><g id="link_SocketImpl_MyStreamServerSocket"><path codeLine="21" d="M270,77.258 C270,95.054 270,111.529 270,130.5894 " fill="none" id="SocketImpl-backto-MyStreamServerSocket" style="stroke:#181818;stroke-width:1.0;"/><polygon fill="#181818" points="270,71.258,266,80.258,270,76.258,274,80.258,270,71.258" style="stroke:#181818;stroke-width:1.0;"/></g></g></svg>