<?xml version="1.0" encoding="us-ascii" standalone="no"?><svg xmlns="http://www.w3.org/2000/svg" xmlns:xlink="http://www.w3.org/1999/xlink" contentStyleType="text/css" height="408px" preserveAspectRatio="none" style="width:618px;height:408px;background:#FFFFFF;" version="1.1" viewBox="0 0 618 408" width="618px" zoomAndPan="magnify"><defs/><g><g id="elem_MyStreamSocket"><rect codeLine="2" fill="#F1F1F1" height="162.0781" id="MyStreamSocket" rx="2.5" ry="2.5" style="stroke:#181818;stroke-width:0.5;" width="604" x="7" y="131"/><ellipse cx="246.75" cy="147" fill="#ADD1B2" rx="11" ry="11" style="stroke:#181818;stroke-width:1.0;"/><path d="M249.7188,152.6406 Q249.1406,152.9375 248.5,153.0781 Q247.8594,153.2344 247.1563,153.2344 Q244.6563,153.2344 243.3281,151.5938 Q242.0156,149.9375 242.0156,146.8125 Q242.0156,143.6875 243.3281,142.0313 Q244.6563,140.375 247.1563,140.375 Q247.8594,140.375 248.5,140.5313 Q249.1563,140.6875 249.7188,140.9844 L249.7188,143.7031 Q249.0938,143.125 248.5,142.8594 Q247.9063,142.5781 247.2813,142.5781 Q245.9375,142.5781 245.25,143.6563 Q244.5625,144.7188 244.5625,146.8125 Q244.5625,148.9063 245.25,149.9844 Q245.9375,151.0469 247.2813,151.0469 Q247.9063,151.0469 248.5,150.7813 Q249.0938,150.5 249.7188,149.9219 L249.7188,152.6406 Z " fill="#000000"/><text fill="#000000" font-family="sans-serif" font-size="14" lengthAdjust="spacing" textLength="116" x="267.25" y="151.8467">MyStreamSocket</text><line style="stroke:#181818;stroke-width:0.5;" x1="8" x2="610" y1="163" y2="163"/><line style="stroke:#181818;stroke-width:0.5;" x1="8" x2="610" y1="171" y2="171"/><ellipse cx="18" cy="184.6484" fill="#84BE84" rx="3" ry="3" style="stroke:#038048;stroke-width:1.0;"/><text fill="#000000" font-family="sans-serif" font-size="14" lengthAdjust="spacing" textLength="578" x="27" y="187.9951">MyStreamSocket(host: String, port: int) throws UnknownHostException, IOException</text><ellipse cx="18" cy="200.9453" fill="#84BE84" rx="3" ry="3" style="stroke:#038048;stroke-width:1.0;"/><text fill="#000000" font-family="sans-serif" font-size="14" lengthAdjust="spacing" textLength="67" x="27" y="204.292">init(): void</text><ellipse cx="18" cy="217.2422" fill="#84BE84" rx="3" ry="3" style="stroke:#038048;stroke-width:1.0;"/><text fill="#000000" font-family="sans-serif" font-size="14" lengthAdjust="spacing" textLength="109" x="27" y="220.5889">receive(): String</text><ellipse cx="18" cy="233.5391" fill="#84BE84" rx="3" ry="3" style="stroke:#038048;stroke-width:1.0;"/><text fill="#000000" font-family="sans-serif" font-size="14" lengthAdjust="spacing" textLength="195" x="27" y="236.8857">send(message: String): void</text><ellipse cx="18" cy="249.8359" fill="#84BE84" rx="3" ry="3" style="stroke:#038048;stroke-width:1.0;"/><text fill="#000000" font-family="sans-serif" font-size="14" lengthAdjust="spacing" textLength="84" x="27" y="253.1826">close(): void</text><ellipse cx="18" cy="266.1328" fill="#84BE84" rx="3" ry="3" style="stroke:#038048;stroke-width:1.0;"/><text fill="#000000" font-family="sans-serif" font-size="14" lengthAdjust="spacing" textLength="208" x="27" y="269.4795">getInetAddress(): InetAddress</text><ellipse cx="18" cy="282.4297" fill="#84BE84" rx="3" ry="3" style="stroke:#038048;stroke-width:1.0;"/><text fill="#000000" font-family="sans-serif" font-size="14" lengthAdjust="spacing" textLength="87" x="27" y="285.7764">getPort(): int</text></g><g id="elem_Client"><rect codeLine="12" fill="#F1F1F1" height="64.2969" id="Client" rx="2.5" ry="2.5" style="stroke:#181818;stroke-width:0.5;" width="385" x="116.5" y="7"/><ellipse cx="285.25" cy="23" fill="#ADD1B2" rx="11" ry="11" style="stroke:#181818;stroke-width:1.0;"/><path d="M288.2188,28.6406 Q287.6406,28.9375 287,29.0781 Q286.3594,29.2344 285.6563,29.2344 Q283.1563,29.2344 281.8281,27.5938 Q280.5156,25.9375 280.5156,22.8125 Q280.5156,19.6875 281.8281,18.0313 Q283.1563,16.375 285.6563,16.375 Q286.3594,16.375 287,16.5313 Q287.6563,16.6875 288.2188,16.9844 L288.2188,19.7031 Q287.5938,19.125 287,18.8594 Q286.4063,18.5781 285.7813,18.5781 Q284.4375,18.5781 283.75,19.6563 Q283.0625,20.7188 283.0625,22.8125 Q283.0625,24.9063 283.75,25.9844 Q284.4375,27.0469 285.7813,27.0469 Q286.4063,27.0469 287,26.7813 Q287.5938,26.5 288.2188,25.9219 L288.2188,28.6406 Z " fill="#000000"/><text fill="#000000" font-family="sans-serif" font-size="14" lengthAdjust="spacing" textLength="39" x="305.75" y="27.8467">Client</text><line style="stroke:#181818;stroke-width:0.5;" x1="117.5" x2="500.5" y1="39" y2="39"/><line style="stroke:#181818;stroke-width:0.5;" x1="117.5" x2="500.5" y1="47" y2="47"/><ellipse cx="127.5" cy="60.6484" fill="#84BE84" rx="3" ry="3" style="stroke:#038048;stroke-width:1.0;"/><text fill="#000000" font-family="sans-serif" font-size="14" lengthAdjust="spacing" textLength="359" x="136.5" y="63.9951">Client() throws UnknownHostException, IOException</text></g><g id="elem_InetAddress"><rect fill="#F1F1F1" height="48" id="InetAddress" rx="2.5" ry="2.5" style="stroke:#181818;stroke-width:0.5;" width="115" x="251.5" y="353"/><ellipse cx="266.5" cy="369" fill="#ADD1B2" rx="11" ry="11" style="stroke:#181818;stroke-width:1.0;"/><path d="M269.4688,374.6406 Q268.8906,374.9375 268.25,375.0781 Q267.6094,375.2344 266.9063,375.2344 Q264.4063,375.2344 263.0781,373.5938 Q261.7656,371.9375 261.7656,368.8125 Q261.7656,365.6875 263.0781,364.0313 Q264.4063,362.375 266.9063,362.375 Q267.6094,362.375 268.25,362.5313 Q268.9063,362.6875 269.4688,362.9844 L269.4688,365.7031 Q268.8438,365.125 268.25,364.8594 Q267.6563,364.5781 267.0313,364.5781 Q265.6875,364.5781 265,365.6563 Q264.3125,366.7188 264.3125,368.8125 Q264.3125,370.9063 265,371.9844 Q265.6875,373.0469 267.0313,373.0469 Q267.6563,373.0469 268.25,372.7813 Q268.8438,372.5 269.4688,371.9219 L269.4688,374.6406 Z " fill="#000000"/><text fill="#000000" font-family="sans-serif" font-size="14" lengthAdjust="spacing" textLength="83" x="280.5" y="373.8467">InetAddress</text><line style="stroke:#181818;stroke-width:0.5;" x1="252.5" x2="365.5" y1="385" y2="385"/><line style="stroke:#181818;stroke-width:0.5;" x1="252.5" x2="365.5" y1="393" y2="393"/></g><g id="link_Client_MyStreamSocket"><path codeLine="16" d="M309,71.364 C309,88.141 309,103.642 309,124.718 " fill="none" id="Client-to-MyStreamSocket" style="stroke:#181818;stroke-width:1.0;"/><polygon fill="#181818" points="309,130.718,313,121.718,309,125.718,305,121.718,309,130.718" style="stroke:#181818;stroke-width:1.0;"/></g><g id="link_MyStreamSocket_InetAddress"><path codeLine="17" d="M309,293.067 C309,314.9666 309,331.0036 309,346.8516 " fill="none" id="MyStreamSocket-to-InetAddress" style="stroke:#181818;stroke-width:1.0;"/><polygon fill="#181818" points="309,352.8516,313,343.8516,309,347.8516,305,343.8516,309,352.8516" style="stroke:#181818;stroke-width:1.0;"/></g></g></svg>