<?xml version="1.0" encoding="us-ascii" standalone="no"?><svg xmlns="http://www.w3.org/2000/svg" xmlns:xlink="http://www.w3.org/1999/xlink" contentStyleType="text/css" height="968px" preserveAspectRatio="none" style="width:1107px;height:968px;background:#FFFFFF;" version="1.1" viewBox="0 0 1107 968" width="1107px" zoomAndPan="magnify"><defs/><g><text fill="#000000" font-family="sans-serif" font-size="14" font-weight="bold" lengthAdjust="spacing" textLength="171" x="464.25" y="27.9951">&#23458;&#25143;&#31471;-&#26381;&#21153;&#22120;&#31471;&#36890;&#20449;&#27969;&#31243;</text><rect fill="#FFFFFF" height="304.0625" style="stroke:#181818;stroke-width:1.0;" width="10" x="535" y="457.3203"/><line style="stroke:#181818;stroke-width:0.5;stroke-dasharray:5.0,5.0;" x1="27" x2="27" y1="118.5938" y2="887.7813"/><line style="stroke:#181818;stroke-width:0.5;stroke-dasharray:5.0,5.0;" x1="302" x2="302" y1="118.5938" y2="887.7813"/><line style="stroke:#181818;stroke-width:0.5;stroke-dasharray:5.0,5.0;" x1="441" x2="441" y1="118.5938" y2="887.7813"/><line style="stroke:#181818;stroke-width:0.5;stroke-dasharray:5.0,5.0;" x1="540" x2="540" y1="118.5938" y2="887.7813"/><line style="stroke:#181818;stroke-width:0.5;stroke-dasharray:5.0,5.0;" x1="892.5" x2="892.5" y1="118.5938" y2="887.7813"/><line style="stroke:#181818;stroke-width:0.5;stroke-dasharray:5.0,5.0;" x1="1031.5" x2="1031.5" y1="118.5938" y2="887.7813"/><text fill="#000000" font-family="sans-serif" font-size="14" lengthAdjust="spacing" textLength="39" x="5" y="115.292">Client</text><ellipse cx="27.5" cy="50.7969" fill="#E2E2F0" rx="8" ry="8" style="stroke:#181818;stroke-width:0.5;"/><path d="M27.5,58.7969 L27.5,85.7969 M14.5,66.7969 L40.5,66.7969 M27.5,85.7969 L14.5,100.7969 M27.5,85.7969 L40.5,100.7969 " fill="none" style="stroke:#181818;stroke-width:0.5;"/><text fill="#000000" font-family="sans-serif" font-size="14" lengthAdjust="spacing" textLength="39" x="5" y="899.7764">Client</text><ellipse cx="27.5" cy="911.5781" fill="#E2E2F0" rx="8" ry="8" style="stroke:#181818;stroke-width:0.5;"/><path d="M27.5,919.5781 L27.5,946.5781 M14.5,927.5781 L40.5,927.5781 M27.5,946.5781 L14.5,961.5781 M27.5,946.5781 L40.5,961.5781 " fill="none" style="stroke:#181818;stroke-width:0.5;"/><rect fill="#E2E2F0" height="30.2969" rx="2.5" ry="2.5" style="stroke:#181818;stroke-width:0.5;" width="129" x="238" y="87.2969"/><text fill="#000000" font-family="sans-serif" font-size="14" lengthAdjust="spacing" textLength="115" x="245" y="107.292">DatagramSocket</text><rect fill="#E2E2F0" height="30.2969" rx="2.5" ry="2.5" style="stroke:#181818;stroke-width:0.5;" width="129" x="238" y="886.7813"/><text fill="#000000" font-family="sans-serif" font-size="14" lengthAdjust="spacing" textLength="115" x="245" y="906.7764">DatagramSocket</text><rect fill="#E2E2F0" height="30.2969" rx="2.5" ry="2.5" style="stroke:#181818;stroke-width:0.5;" width="128" x="377" y="87.2969"/><text fill="#000000" font-family="sans-serif" font-size="14" lengthAdjust="spacing" textLength="114" x="384" y="107.292">DatagramPacket</text><rect fill="#E2E2F0" height="30.2969" rx="2.5" ry="2.5" style="stroke:#181818;stroke-width:0.5;" width="128" x="377" y="886.7813"/><text fill="#000000" font-family="sans-serif" font-size="14" lengthAdjust="spacing" textLength="114" x="384" y="906.7764">DatagramPacket</text><text fill="#000000" font-family="sans-serif" font-size="14" lengthAdjust="spacing" textLength="44" x="515" y="115.292">Server</text><path d="M522,66.2969 C522,56.2969 540,56.2969 540,56.2969 C540,56.2969 558,56.2969 558,66.2969 L558,92.2969 C558,102.2969 540,102.2969 540,102.2969 C540,102.2969 522,102.2969 522,92.2969 L522,66.2969 " fill="#E2E2F0" style="stroke:#181818;stroke-width:1.5;"/><path d="M522,66.2969 C522,76.2969 540,76.2969 540,76.2969 C540,76.2969 558,76.2969 558,66.2969 " fill="none" style="stroke:#181818;stroke-width:1.5;"/><text fill="#000000" font-family="sans-serif" font-size="14" lengthAdjust="spacing" textLength="44" x="515" y="899.7764">Server</text><path d="M522,913.0781 C522,903.0781 540,903.0781 540,903.0781 C540,903.0781 558,903.0781 558,913.0781 L558,939.0781 C558,949.0781 540,949.0781 540,949.0781 C540,949.0781 522,949.0781 522,939.0781 L522,913.0781 " fill="#E2E2F0" style="stroke:#181818;stroke-width:1.5;"/><path d="M522,913.0781 C522,923.0781 540,923.0781 540,923.0781 C540,923.0781 558,923.0781 558,913.0781 " fill="none" style="stroke:#181818;stroke-width:1.5;"/><rect fill="#E2E2F0" height="30.2969" rx="2.5" ry="2.5" style="stroke:#181818;stroke-width:0.5;" width="129" x="828.5" y="87.2969"/><text fill="#000000" font-family="sans-serif" font-size="14" lengthAdjust="spacing" textLength="115" x="835.5" y="107.292">DatagramSocket</text><rect fill="#E2E2F0" height="30.2969" rx="2.5" ry="2.5" style="stroke:#181818;stroke-width:0.5;" width="129" x="828.5" y="886.7813"/><text fill="#000000" font-family="sans-serif" font-size="14" lengthAdjust="spacing" textLength="115" x="835.5" y="906.7764">DatagramSocket</text><rect fill="#E2E2F0" height="30.2969" rx="2.5" ry="2.5" style="stroke:#181818;stroke-width:0.5;" width="128" x="967.5" y="87.2969"/><text fill="#000000" font-family="sans-serif" font-size="14" lengthAdjust="spacing" textLength="114" x="974.5" y="107.292">DatagramPacket</text><rect fill="#E2E2F0" height="30.2969" rx="2.5" ry="2.5" style="stroke:#181818;stroke-width:0.5;" width="128" x="967.5" y="886.7813"/><text fill="#000000" font-family="sans-serif" font-size="14" lengthAdjust="spacing" textLength="114" x="974.5" y="906.7764">DatagramPacket</text><rect fill="#FFFFFF" height="304.0625" style="stroke:#181818;stroke-width:1.0;" width="10" x="535" y="457.3203"/><rect fill="#EEEEEE" height="3" style="stroke:#EEEEEE;stroke-width:1.0;" width="1100.5" x="0" y="149.1602"/><line style="stroke:#000000;stroke-width:1.0;" x1="0" x2="1100.5" y1="149.1602" y2="149.1602"/><line style="stroke:#000000;stroke-width:1.0;" x1="0" x2="1100.5" y1="152.1602" y2="152.1602"/><rect fill="#EEEEEE" height="23.1328" style="stroke:#000000;stroke-width:2.0;" width="187" x="456.75" y="138.5938"/><text fill="#000000" font-family="sans-serif" font-size="13" font-weight="bold" lengthAdjust="spacing" textLength="168" x="462.75" y="154.6606">&#23458;&#25143;&#31471;&#21457;&#36865;&#28040;&#24687;&#21040;&#26381;&#21153;&#22120;&#31471;</text><polygon fill="#181818" points="290.5,188.8594,300.5,192.8594,290.5,196.8594,294.5,192.8594" style="stroke:#181818;stroke-width:1.0;"/><line style="stroke:#181818;stroke-width:1.0;" x1="27.5" x2="296.5" y1="192.8594" y2="192.8594"/><text fill="#000000" font-family="sans-serif" font-size="13" lengthAdjust="spacing" textLength="161" x="34.5" y="187.7935">&#26500;&#24314;DatagramSocket&#23545;&#35937;</text><polygon fill="#181818" points="429,233.125,439,237.125,429,241.125,433,237.125" style="stroke:#181818;stroke-width:1.0;"/><line style="stroke:#181818;stroke-width:1.0;" x1="27.5" x2="435" y1="237.125" y2="237.125"/><text fill="#000000" font-family="sans-serif" font-size="13" lengthAdjust="spacing" textLength="160" x="34.5" y="216.9263">&#26500;&#24314;DatagramPacket&#23545;&#35937;</text><text fill="#000000" font-family="sans-serif" font-size="13" lengthAdjust="spacing" textLength="234" x="34.5" y="232.0591">&#21253;&#21547;&#25509;&#25910;&#32773;&#20027;&#26426;&#22320;&#22336;&#12289;&#25509;&#25910;&#31471;&#21475;&#21495;&#31561;&#20449;&#24687;</text><polygon fill="#181818" points="290.5,277.3906,300.5,281.3906,290.5,285.3906,294.5,281.3906" style="stroke:#181818;stroke-width:1.0;"/><line style="stroke:#181818;stroke-width:1.0;" x1="27.5" x2="296.5" y1="281.3906" y2="281.3906"/><text fill="#000000" font-family="sans-serif" font-size="13" lengthAdjust="spacing" textLength="83" x="34.5" y="261.1919">&#35843;&#29992;send&#26041;&#27861;</text><text fill="#000000" font-family="sans-serif" font-size="13" lengthAdjust="spacing" textLength="251" x="34.5" y="276.3247">&#23558;DatagramPacket&#23545;&#35937;&#23454;&#20363;&#20316;&#20026;&#21442;&#25968;&#21457;&#36865;</text><rect fill="#EEEEEE" height="3" style="stroke:#EEEEEE;stroke-width:1.0;" width="1100.5" x="0" y="309.957"/><line style="stroke:#000000;stroke-width:1.0;" x1="0" x2="1100.5" y1="309.957" y2="309.957"/><line style="stroke:#000000;stroke-width:1.0;" x1="0" x2="1100.5" y1="312.957" y2="312.957"/><rect fill="#EEEEEE" height="23.1328" style="stroke:#000000;stroke-width:2.0;" width="131" x="484.75" y="299.3906"/><text fill="#000000" font-family="sans-serif" font-size="13" font-weight="bold" lengthAdjust="spacing" textLength="112" x="490.75" y="315.4575">&#26381;&#21153;&#22120;&#31471;&#25509;&#25910;&#28040;&#24687;</text><polygon fill="#181818" points="881,364.7891,891,368.7891,881,372.7891,885,368.7891" style="stroke:#181818;stroke-width:1.0;"/><line style="stroke:#181818;stroke-width:1.0;" x1="540" x2="887" y1="368.7891" y2="368.7891"/><text fill="#000000" font-family="sans-serif" font-size="13" lengthAdjust="spacing" textLength="161" x="547" y="348.5903">&#26500;&#24314;DatagramSocket&#23545;&#35937;</text><text fill="#000000" font-family="sans-serif" font-size="13" lengthAdjust="spacing" textLength="104" x="547" y="363.7231">&#25351;&#23450;&#25509;&#25910;&#30340;&#31471;&#21475;&#21495;</text><polygon fill="#181818" points="1019.5,409.0547,1029.5,413.0547,1019.5,417.0547,1023.5,413.0547" style="stroke:#181818;stroke-width:1.0;"/><line style="stroke:#181818;stroke-width:1.0;" x1="540" x2="1025.5" y1="413.0547" y2="413.0547"/><text fill="#000000" font-family="sans-serif" font-size="13" lengthAdjust="spacing" textLength="160" x="547" y="392.856">&#26500;&#24314;DatagramPacket&#23545;&#35937;</text><text fill="#000000" font-family="sans-serif" font-size="13" lengthAdjust="spacing" textLength="130" x="547" y="407.9888">&#29992;&#20110;&#37325;&#32452;&#25509;&#25910;&#21040;&#30340;&#28040;&#24687;</text><polygon fill="#181818" points="881,453.3203,891,457.3203,881,461.3203,885,457.3203" style="stroke:#181818;stroke-width:1.0;"/><line style="stroke:#181818;stroke-width:1.0;" x1="545" x2="887" y1="457.3203" y2="457.3203"/><text fill="#000000" font-family="sans-serif" font-size="13" lengthAdjust="spacing" textLength="98" x="552" y="437.1216">&#35843;&#29992;receive&#26041;&#27861;</text><text fill="#000000" font-family="sans-serif" font-size="13" lengthAdjust="spacing" textLength="329" x="552" y="452.2544">&#36827;&#34892;&#28040;&#24687;&#25509;&#25910;&#65292;&#24182;&#23558;DatagramPacket&#23545;&#35937;&#23454;&#20363;&#20316;&#20026;&#21442;&#25968;</text><rect fill="#EEEEEE" height="3" style="stroke:#EEEEEE;stroke-width:1.0;" width="1100.5" x="0" y="485.8867"/><line style="stroke:#000000;stroke-width:1.0;" x1="0" x2="1100.5" y1="485.8867" y2="485.8867"/><line style="stroke:#000000;stroke-width:1.0;" x1="0" x2="1100.5" y1="488.8867" y2="488.8867"/><rect fill="#EEEEEE" height="23.1328" style="stroke:#000000;stroke-width:2.0;" width="131" x="484.75" y="475.3203"/><text fill="#000000" font-family="sans-serif" font-size="13" font-weight="bold" lengthAdjust="spacing" textLength="112" x="490.75" y="491.3872">&#26381;&#21153;&#22120;&#31471;&#22788;&#29702;&#28040;&#24687;</text><line style="stroke:#181818;stroke-width:1.0;" x1="545" x2="587" y1="529.5859" y2="529.5859"/><line style="stroke:#181818;stroke-width:1.0;" x1="587" x2="587" y1="529.5859" y2="542.5859"/><line style="stroke:#181818;stroke-width:1.0;" x1="546" x2="587" y1="542.5859" y2="542.5859"/><polygon fill="#181818" points="556,538.5859,546,542.5859,556,546.5859,552,542.5859" style="stroke:#181818;stroke-width:1.0;"/><text fill="#000000" font-family="sans-serif" font-size="13" lengthAdjust="spacing" textLength="104" x="552" y="524.52">&#22788;&#29702;&#25509;&#25910;&#21040;&#30340;&#25968;&#25454;</text><line style="stroke:#181818;stroke-width:1.0;" x1="545" x2="587" y1="571.7188" y2="571.7188"/><line style="stroke:#181818;stroke-width:1.0;" x1="587" x2="587" y1="571.7188" y2="584.7188"/><line style="stroke:#181818;stroke-width:1.0;" x1="546" x2="587" y1="584.7188" y2="584.7188"/><polygon fill="#181818" points="556,580.7188,546,584.7188,556,588.7188,552,584.7188" style="stroke:#181818;stroke-width:1.0;"/><text fill="#000000" font-family="sans-serif" font-size="13" lengthAdjust="spacing" textLength="78" x="552" y="566.6528">&#33719;&#21462;&#24403;&#21069;&#26102;&#38388;</text><line style="stroke:#181818;stroke-width:1.0;" x1="545" x2="587" y1="613.8516" y2="613.8516"/><line style="stroke:#181818;stroke-width:1.0;" x1="587" x2="587" y1="613.8516" y2="626.8516"/><line style="stroke:#181818;stroke-width:1.0;" x1="546" x2="587" y1="626.8516" y2="626.8516"/><polygon fill="#181818" points="556,622.8516,546,626.8516,556,630.8516,552,626.8516" style="stroke:#181818;stroke-width:1.0;"/><text fill="#000000" font-family="sans-serif" font-size="13" lengthAdjust="spacing" textLength="65" x="552" y="608.7856">&#26684;&#24335;&#21270;&#26102;&#38388;</text><line style="stroke:#181818;stroke-width:1.0;" x1="545" x2="587" y1="655.9844" y2="655.9844"/><line style="stroke:#181818;stroke-width:1.0;" x1="587" x2="587" y1="655.9844" y2="668.9844"/><line style="stroke:#181818;stroke-width:1.0;" x1="546" x2="587" y1="668.9844" y2="668.9844"/><polygon fill="#181818" points="556,664.9844,546,668.9844,556,672.9844,552,668.9844" style="stroke:#181818;stroke-width:1.0;"/><text fill="#000000" font-family="sans-serif" font-size="13" lengthAdjust="spacing" textLength="195" x="552" y="650.9185">&#26174;&#31034;&#23458;&#25143;&#31471;&#21457;&#36865;&#30340;&#28040;&#24687;&#21644;&#21457;&#36865;&#26102;&#38388;</text><line style="stroke:#181818;stroke-width:1.0;" x1="545" x2="587" y1="713.25" y2="713.25"/><line style="stroke:#181818;stroke-width:1.0;" x1="587" x2="587" y1="713.25" y2="726.25"/><line style="stroke:#181818;stroke-width:1.0;" x1="546" x2="587" y1="726.25" y2="726.25"/><polygon fill="#181818" points="556,722.25,546,726.25,556,730.25,552,726.25" style="stroke:#181818;stroke-width:1.0;"/><text fill="#000000" font-family="sans-serif" font-size="13" lengthAdjust="spacing" textLength="157" x="552" y="693.0513">&#22914;&#26524;&#25509;&#25910;&#21040;&#30340;&#28040;&#24687;&#26159;'quit()'</text><text fill="#000000" font-family="sans-serif" font-size="13" lengthAdjust="spacing" textLength="195" x="552" y="708.1841">&#21457;&#36865;&#30830;&#35748;&#28040;&#24687;&#32473;&#23458;&#25143;&#31471;&#24182;&#36864;&#20986;&#24490;&#29615;</text><line style="stroke:#181818;stroke-width:1.0;" x1="545" x2="587" y1="760.3828" y2="760.3828"/><line style="stroke:#181818;stroke-width:1.0;" x1="587" x2="587" y1="760.3828" y2="773.3828"/><line style="stroke:#181818;stroke-width:1.0;" x1="540" x2="587" y1="773.3828" y2="773.3828"/><polygon fill="#181818" points="550,769.3828,540,773.3828,550,777.3828,546,773.3828" style="stroke:#181818;stroke-width:1.0;"/><text fill="#000000" font-family="sans-serif" font-size="13" lengthAdjust="spacing" textLength="143" x="552" y="755.3169">&#26174;&#31034;&#26381;&#21153;&#22120;&#20851;&#38381;&#25104;&#21151;&#28040;&#24687;</text><rect fill="#EEEEEE" height="3" style="stroke:#EEEEEE;stroke-width:1.0;" width="1100.5" x="0" y="796.9492"/><line style="stroke:#000000;stroke-width:1.0;" x1="0" x2="1100.5" y1="796.9492" y2="796.9492"/><line style="stroke:#000000;stroke-width:1.0;" x1="0" x2="1100.5" y1="799.9492" y2="799.9492"/><rect fill="#EEEEEE" height="23.1328" style="stroke:#000000;stroke-width:2.0;" width="171" x="464.75" y="786.3828"/><text fill="#000000" font-family="sans-serif" font-size="13" font-weight="bold" lengthAdjust="spacing" textLength="152" x="470.75" y="802.4497">&#20851;&#38381;DatagramSocket</text><polygon fill="#181818" points="290.5,836.6484,300.5,840.6484,290.5,844.6484,294.5,840.6484" style="stroke:#181818;stroke-width:1.0;"/><line style="stroke:#181818;stroke-width:1.0;" x1="27.5" x2="296.5" y1="840.6484" y2="840.6484"/><text fill="#000000" font-family="sans-serif" font-size="13" lengthAdjust="spacing" textLength="135" x="34.5" y="835.5825">&#20851;&#38381;DatagramSocket</text><polygon fill="#181818" points="881,865.7813,891,869.7813,881,873.7813,885,869.7813" style="stroke:#181818;stroke-width:1.0;"/><line style="stroke:#181818;stroke-width:1.0;" x1="540" x2="887" y1="869.7813" y2="869.7813"/><text fill="#000000" font-family="sans-serif" font-size="13" lengthAdjust="spacing" textLength="135" x="547" y="864.7153">&#20851;&#38381;DatagramSocket</text></g></svg>