<?xml version="1.0" encoding="us-ascii" standalone="no"?><svg xmlns="http://www.w3.org/2000/svg" xmlns:xlink="http://www.w3.org/1999/xlink" contentStyleType="text/css" height="549px" preserveAspectRatio="none" style="width:356px;height:549px;background:#FFFFFF;" version="1.1" viewBox="0 0 356 549" width="356px" zoomAndPan="magnify"><defs/><g><g id="elem_MyStreamServerSocket"><rect codeLine="2" fill="#F1F1F1" height="80.5938" id="MyStreamServerSocket" rx="2.5" ry="2.5" style="stroke:#181818;stroke-width:0.5;" width="250" x="7" y="131"/><ellipse cx="48.1" cy="147" fill="#ADD1B2" rx="11" ry="11" style="stroke:#181818;stroke-width:1.0;"/><path d="M51.0688,152.6406 Q50.4906,152.9375 49.85,153.0781 Q49.2094,153.2344 48.5063,153.2344 Q46.0063,153.2344 44.6781,151.5938 Q43.3656,149.9375 43.3656,146.8125 Q43.3656,143.6875 44.6781,142.0313 Q46.0063,140.375 48.5063,140.375 Q49.2094,140.375 49.85,140.5313 Q50.5063,140.6875 51.0688,140.9844 L51.0688,143.7031 Q50.4438,143.125 49.85,142.8594 Q49.2563,142.5781 48.6313,142.5781 Q47.2875,142.5781 46.6,143.6563 Q45.9125,144.7188 45.9125,146.8125 Q45.9125,148.9063 46.6,149.9844 Q47.2875,151.0469 48.6313,151.0469 Q49.2563,151.0469 49.85,150.7813 Q50.4438,150.5 51.0688,149.9219 L51.0688,152.6406 Z " fill="#000000"/><text fill="#000000" font-family="sans-serif" font-size="14" lengthAdjust="spacing" textLength="160" x="67.9" y="151.8467">MyStreamServerSocket</text><line style="stroke:#181818;stroke-width:0.5;" x1="8" x2="256" y1="163" y2="163"/><line style="stroke:#181818;stroke-width:0.5;" x1="8" x2="256" y1="171" y2="171"/><ellipse cx="18" cy="184.6484" fill="#84BE84" rx="3" ry="3" style="stroke:#038048;stroke-width:1.0;"/><text fill="#000000" font-family="sans-serif" font-size="14" lengthAdjust="spacing" textLength="224" x="27" y="187.9951">MyStreamServerSocket(port: int)</text><ellipse cx="18" cy="200.9453" fill="#84BE84" rx="3" ry="3" style="stroke:#038048;stroke-width:1.0;"/><text fill="#000000" font-family="sans-serif" font-size="14" lengthAdjust="spacing" textLength="182" x="27" y="204.292">accept(): MyStreamSocket</text></g><g id="elem_MyStreamSocket"><rect codeLine="7" fill="#F1F1F1" height="162.0781" id="MyStreamSocket" rx="2.5" ry="2.5" style="stroke:#181818;stroke-width:0.5;" width="256" x="93" y="272"/><ellipse cx="158.75" cy="288" fill="#ADD1B2" rx="11" ry="11" style="stroke:#181818;stroke-width:1.0;"/><path d="M161.7188,293.6406 Q161.1406,293.9375 160.5,294.0781 Q159.8594,294.2344 159.1563,294.2344 Q156.6563,294.2344 155.3281,292.5938 Q154.0156,290.9375 154.0156,287.8125 Q154.0156,284.6875 155.3281,283.0313 Q156.6563,281.375 159.1563,281.375 Q159.8594,281.375 160.5,281.5313 Q161.1563,281.6875 161.7188,281.9844 L161.7188,284.7031 Q161.0938,284.125 160.5,283.8594 Q159.9063,283.5781 159.2813,283.5781 Q157.9375,283.5781 157.25,284.6563 Q156.5625,285.7188 156.5625,287.8125 Q156.5625,289.9063 157.25,290.9844 Q157.9375,292.0469 159.2813,292.0469 Q159.9063,292.0469 160.5,291.7813 Q161.0938,291.5 161.7188,290.9219 L161.7188,293.6406 Z " fill="#000000"/><text fill="#000000" font-family="sans-serif" font-size="14" lengthAdjust="spacing" textLength="116" x="179.25" y="292.8467">MyStreamSocket</text><line style="stroke:#181818;stroke-width:0.5;" x1="94" x2="348" y1="304" y2="304"/><line style="stroke:#181818;stroke-width:0.5;" x1="94" x2="348" y1="312" y2="312"/><ellipse cx="104" cy="325.6484" fill="#84BE84" rx="3" ry="3" style="stroke:#038048;stroke-width:1.0;"/><text fill="#000000" font-family="sans-serif" font-size="14" lengthAdjust="spacing" textLength="230" x="113" y="328.9951">MyStreamSocket(socket: Socket)</text><ellipse cx="104" cy="341.9453" fill="#84BE84" rx="3" ry="3" style="stroke:#038048;stroke-width:1.0;"/><text fill="#000000" font-family="sans-serif" font-size="14" lengthAdjust="spacing" textLength="67" x="113" y="345.292">init(): void</text><ellipse cx="104" cy="358.2422" fill="#84BE84" rx="3" ry="3" style="stroke:#038048;stroke-width:1.0;"/><text fill="#000000" font-family="sans-serif" font-size="14" lengthAdjust="spacing" textLength="109" x="113" y="361.5889">receive(): String</text><ellipse cx="104" cy="374.5391" fill="#84BE84" rx="3" ry="3" style="stroke:#038048;stroke-width:1.0;"/><text fill="#000000" font-family="sans-serif" font-size="14" lengthAdjust="spacing" textLength="195" x="113" y="377.8857">send(message: String): void</text><ellipse cx="104" cy="390.8359" fill="#84BE84" rx="3" ry="3" style="stroke:#038048;stroke-width:1.0;"/><text fill="#000000" font-family="sans-serif" font-size="14" lengthAdjust="spacing" textLength="84" x="113" y="394.1826">close(): void</text><ellipse cx="104" cy="407.1328" fill="#84BE84" rx="3" ry="3" style="stroke:#038048;stroke-width:1.0;"/><text fill="#000000" font-family="sans-serif" font-size="14" lengthAdjust="spacing" textLength="208" x="113" y="410.4795">getInetAddress(): InetAddress</text><ellipse cx="104" cy="423.4297" fill="#84BE84" rx="3" ry="3" style="stroke:#038048;stroke-width:1.0;"/><text fill="#000000" font-family="sans-serif" font-size="14" lengthAdjust="spacing" textLength="87" x="113" y="426.7764">getPort(): int</text></g><g id="elem_Server"><rect codeLine="17" fill="#F1F1F1" height="64.2969" id="Server" rx="2.5" ry="2.5" style="stroke:#181818;stroke-width:0.5;" width="217" x="112.5" y="7"/><ellipse cx="194.75" cy="23" fill="#ADD1B2" rx="11" ry="11" style="stroke:#181818;stroke-width:1.0;"/><path d="M197.7188,28.6406 Q197.1406,28.9375 196.5,29.0781 Q195.8594,29.2344 195.1563,29.2344 Q192.6563,29.2344 191.3281,27.5938 Q190.0156,25.9375 190.0156,22.8125 Q190.0156,19.6875 191.3281,18.0313 Q192.6563,16.375 195.1563,16.375 Q195.8594,16.375 196.5,16.5313 Q197.1563,16.6875 197.7188,16.9844 L197.7188,19.7031 Q197.0938,19.125 196.5,18.8594 Q195.9063,18.5781 195.2813,18.5781 Q193.9375,18.5781 193.25,19.6563 Q192.5625,20.7188 192.5625,22.8125 Q192.5625,24.9063 193.25,25.9844 Q193.9375,27.0469 195.2813,27.0469 Q195.9063,27.0469 196.5,26.7813 Q197.0938,26.5 197.7188,25.9219 L197.7188,28.6406 Z " fill="#000000"/><text fill="#000000" font-family="sans-serif" font-size="14" lengthAdjust="spacing" textLength="44" x="215.25" y="27.8467">Server</text><line style="stroke:#181818;stroke-width:0.5;" x1="113.5" x2="328.5" y1="39" y2="39"/><line style="stroke:#181818;stroke-width:0.5;" x1="113.5" x2="328.5" y1="47" y2="47"/><ellipse cx="123.5" cy="60.6484" fill="#84BE84" rx="3" ry="3" style="stroke:#038048;stroke-width:1.0;"/><text fill="#000000" font-family="sans-serif" font-size="14" lengthAdjust="spacing" textLength="191" x="132.5" y="63.9951">Server() throws IOException</text></g><g id="elem_InetAddress"><rect fill="#F1F1F1" height="48" id="InetAddress" rx="2.5" ry="2.5" style="stroke:#181818;stroke-width:0.5;" width="115" x="97.5" y="494"/><ellipse cx="112.5" cy="510" fill="#ADD1B2" rx="11" ry="11" style="stroke:#181818;stroke-width:1.0;"/><path d="M115.4687,515.6406 Q114.8906,515.9375 114.25,516.0781 Q113.6094,516.2344 112.9062,516.2344 Q110.4062,516.2344 109.0781,514.5938 Q107.7656,512.9375 107.7656,509.8125 Q107.7656,506.6875 109.0781,505.0313 Q110.4062,503.375 112.9062,503.375 Q113.6094,503.375 114.25,503.5313 Q114.9062,503.6875 115.4687,503.9844 L115.4687,506.7031 Q114.8437,506.125 114.25,505.8594 Q113.6562,505.5781 113.0312,505.5781 Q111.6875,505.5781 111,506.6563 Q110.3125,507.7188 110.3125,509.8125 Q110.3125,511.9063 111,512.9844 Q111.6875,514.0469 113.0312,514.0469 Q113.6562,514.0469 114.25,513.7813 Q114.8437,513.5 115.4687,512.9219 L115.4687,515.6406 Z " fill="#000000"/><text fill="#000000" font-family="sans-serif" font-size="14" lengthAdjust="spacing" textLength="83" x="126.5" y="514.8467">InetAddress</text><line style="stroke:#181818;stroke-width:0.5;" x1="98.5" x2="211.5" y1="526" y2="526"/><line style="stroke:#181818;stroke-width:0.5;" x1="98.5" x2="211.5" y1="534" y2="534"/></g><g id="elem_Socket"><rect fill="#F1F1F1" height="48" id="Socket" rx="2.5" ry="2.5" style="stroke:#181818;stroke-width:0.5;" width="80" x="248" y="494"/><ellipse cx="263" cy="510" fill="#ADD1B2" rx="11" ry="11" style="stroke:#181818;stroke-width:1.0;"/><path d="M265.9688,515.6406 Q265.3906,515.9375 264.75,516.0781 Q264.1094,516.2344 263.4063,516.2344 Q260.9063,516.2344 259.5781,514.5938 Q258.2656,512.9375 258.2656,509.8125 Q258.2656,506.6875 259.5781,505.0313 Q260.9063,503.375 263.4063,503.375 Q264.1094,503.375 264.75,503.5313 Q265.4063,503.6875 265.9688,503.9844 L265.9688,506.7031 Q265.3438,506.125 264.75,505.8594 Q264.1563,505.5781 263.5313,505.5781 Q262.1875,505.5781 261.5,506.6563 Q260.8125,507.7188 260.8125,509.8125 Q260.8125,511.9063 261.5,512.9844 Q262.1875,514.0469 263.5313,514.0469 Q264.1563,514.0469 264.75,513.7813 Q265.3438,513.5 265.9688,512.9219 L265.9688,515.6406 Z " fill="#000000"/><text fill="#000000" font-family="sans-serif" font-size="14" lengthAdjust="spacing" textLength="48" x="277" y="514.8467">Socket</text><line style="stroke:#181818;stroke-width:0.5;" x1="249" x2="327" y1="526" y2="526"/><line style="stroke:#181818;stroke-width:0.5;" x1="249" x2="327" y1="534" y2="534"/></g><g id="link_Server_MyStreamServerSocket"><path codeLine="21" d="M199.682,71.258 C187.546,89.054 175.5987,106.5721 162.5997,125.6321 " fill="none" id="Server-to-MyStreamServerSocket" style="stroke:#181818;stroke-width:1.0;"/><polygon fill="#181818" points="159.219,130.589,167.5946,125.4074,162.0362,126.4582,160.9854,120.8998,159.219,130.589" style="stroke:#181818;stroke-width:1.0;"/></g><g id="link_MyStreamServerSocket_MyStreamSocket"><path codeLine="22" d="M151.752,212.337 C160.458,229.895 168.3519,245.8154 178.5729,266.4314 " fill="none" id="MyStreamServerSocket-to-MyStreamSocket" style="stroke:#181818;stroke-width:1.0;"/><polygon fill="#181818" points="181.238,271.807,180.8241,261.9668,179.0171,267.3273,173.6566,265.5203,181.238,271.807" style="stroke:#181818;stroke-width:1.0;"/></g><g id="link_Server_MyStreamSocket"><path codeLine="23" d="M244.861,71.411 C256.078,88.145 268.234,109.642 274,131 C286.547,177.472 277.1622,224.2083 261.7392,266.3013 " fill="none" id="Server-to-MyStreamSocket" style="stroke:#181818;stroke-width:1.0;"/><polygon fill="#181818" points="259.675,271.935,266.5272,264.8605,261.3952,267.2402,259.0155,262.1082,259.675,271.935" style="stroke:#181818;stroke-width:1.0;"/></g><g id="link_MyStreamSocket_InetAddress"><path codeLine="24" d="M188.58,434.067 C179.713,455.9666 173.0419,472.4422 166.6249,488.2902 " fill="none" id="MyStreamSocket-to-InetAddress" style="stroke:#181818;stroke-width:1.0;"/><polygon fill="#181818" points="164.373,493.8516,171.4584,487.0107,166.2496,489.2171,164.0432,484.0083,164.373,493.8516" style="stroke:#181818;stroke-width:1.0;"/></g><g id="link_MyStreamSocket_Socket"><path codeLine="25" d="M253.911,434.067 C262.913,455.9666 269.69,472.4541 276.204,488.3021 " fill="none" id="MyStreamSocket-to-Socket" style="stroke:#181818;stroke-width:1.0;"/><polygon fill="#181818" points="278.485,493.8516,278.7632,484.0067,276.5842,489.227,271.3638,487.048,278.485,493.8516" style="stroke:#181818;stroke-width:1.0;"/></g></g></svg>